<?xml version="1.0" encoding="utf-8"?>
<!-- Generator: Adobe Illustrator 21.0.0, SVG Export Plug-In . SVG Version: 6.00 Build 0)  -->
<svg version="1.1" id="Layer_1" xmlns="http://www.w3.org/2000/svg" xmlns:xlink="http://www.w3.org/1999/xlink" x="0px" y="0px"
	 viewBox="0 0 1024 1024" style="enable-background:new 0 0 1024 1024;" xml:space="preserve">
<style type="text/css">
	.st0{fill:#FFFFFF;}
</style>
<title></title>
<g id="icomoon-ignore">
</g>
<path class="st0" d="M384,486.4c42.4,0,76.8-40.1,76.8-89.6s-34.4-89.6-76.8-89.6s-76.8,40.1-76.8,89.6S341.6,486.4,384,486.4z
	 M512,7.7C240.5,7.7,20.5,227.7,20.5,499.2S240.5,990.7,512,990.7c271.4,0,491.5-220.1,491.5-491.6C1003.5,227.7,783.4,7.7,512,7.7
	L512,7.7z M512,888.3c-214.9,0-389.1-174.2-389.1-389.1C122.9,284.3,297.1,110,512,110s389.1,174.2,389.1,389.2
	C901.1,714.1,726.9,888.3,512,888.3z M734.3,567.6c-18.6-9.6-41.7-2.2-51.6,16.4c-1.7,3.3-44.5,81.6-170.6,81.6
	c-125.5,0-168.5-77.5-170.6-81.5c-9.6-18.7-32.4-26.3-51.4-16.8c-18.9,9.5-26.7,32.6-17.2,51.6c2.6,5.1,63.9,123.6,239.2,123.6
	c175.4,0,236.6-118.6,239.1-123.6C760.6,599.9,753,577.2,734.3,567.6L734.3,567.6z M576,435.2h128c21.2,0,38.4-17.2,38.4-38.4
	s-17.2-38.4-38.4-38.4H576c-21.2,0-38.4,17.2-38.4,38.4C537.6,418,554.8,435.2,576,435.2z"/>
</svg>
