<?xml version="1.0" encoding="utf-8"?>
<!-- Generator: Adobe Illustrator 21.0.0, SVG Export Plug-In . SVG Version: 6.00 Build 0)  -->
<svg version="1.1" id="Layer_1" xmlns="http://www.w3.org/2000/svg" xmlns:xlink="http://www.w3.org/1999/xlink" x="0px" y="0px"
	 viewBox="0 0 35.6 23.7" style="enable-background:new 0 0 35.6 23.7;" xml:space="preserve">
<style type="text/css">
	.st0{fill:#FFFFFF;}
	.st1{fill:#6E6F72;}
	.st2{fill:#64297D;}
</style>
<g>
	<path class="st2" d="M35.3,0.4C35,0.1,34.8,0,34.4,0H1.2C0.9,0,0.6,0.1,0.4,0.4C0.1,0.6,0,0.9,0,1.2v21.4c0,0.3,0.1,0.6,0.4,0.8
		c0.2,0.2,0.5,0.4,0.8,0.4h33.2c0.3,0,0.6-0.1,0.8-0.4c0.2-0.2,0.4-0.5,0.4-0.8V1.2C35.6,0.9,35.5,0.6,35.3,0.4L35.3,0.4z
		 M33.2,16.6c-1.3,0-2.4,0.5-3.4,1.4c-0.9,0.9-1.4,2-1.4,3.4H7.1c0-1.3-0.5-2.4-1.4-3.4c-0.9-0.9-2-1.4-3.4-1.4V7.1
		c1.3,0,2.4-0.5,3.4-1.4c0.9-0.9,1.4-2,1.4-3.4h21.4c0,1.3,0.5,2.4,1.4,3.4c0.9,0.9,2,1.4,3.4,1.4V16.6z M33.2,16.6"/>
	<path class="st2" d="M22.3,6.8c-0.5-0.8-1.1-1.4-1.9-1.9c-0.8-0.5-1.6-0.7-2.6-0.7c-0.9,0-1.8,0.2-2.6,0.7
		c-0.8,0.5-1.4,1.1-1.9,1.9c-0.5,0.8-0.8,1.6-1.1,2.5c-0.3,0.9-0.4,1.8-0.4,2.6c0,0.9,0.1,1.7,0.4,2.6s0.6,1.7,1.1,2.5
		c0.5,0.8,1.1,1.4,1.9,1.9c0.8,0.5,1.6,0.7,2.6,0.7c0.9,0,1.8-0.2,2.6-0.7c0.8-0.5,1.4-1.1,1.9-1.9c0.5-0.8,0.8-1.6,1.1-2.5
		c0.3-0.9,0.4-1.8,0.4-2.6c0-0.9-0.1-1.7-0.4-2.6C23.1,8.3,22.7,7.5,22.3,6.8L22.3,6.8z M21.4,16.6"/>
</g>
</svg>
