<?xml version="1.0" encoding="utf-8"?>
<!-- Generator: Adobe Illustrator 21.0.0, SVG Export Plug-In . SVG Version: 6.00 Build 0)  -->
<svg version="1.1" id="Layer_1" xmlns="http://www.w3.org/2000/svg" xmlns:xlink="http://www.w3.org/1999/xlink" x="0px" y="0px"
	 viewBox="0 0 20.5 28.1" style="enable-background:new 0 0 20.5 28.1;" xml:space="preserve">
<style type="text/css">
	.st0{fill:#FFFFFF;}
</style>
<g>
	<path class="st0" d="M1.7,27.4c0,0.3,0.3,0.6,0.6,0.6h15.8c0.3,0,0.6-0.3,0.6-0.6V7.2H1.7V27.4z M13.7,10.7h2.3v13.6h-2.3V10.7z
		 M9.1,10.7h2.3v13.6H9.1V10.7z M4.4,10.7h2.3v13.6H4.4V10.7z M4.4,10.7"/>
	<path class="st0" d="M15.5,2.9V0.6c0-0.3-0.3-0.6-0.6-0.6H5.6C5.3,0,5,0.3,5,0.6v3H0.6C0.3,3.6,0,3.9,0,4.3v1.6
		c0,0.3,0.3,0.6,0.6,0.6h19.2c0.3,0,0.6-0.3,0.6-0.6V4.3c0-0.3-0.3-0.6-0.6-0.6h-4.4V2.9z M13.1,3.5H7.3V2.3h5.8V3.5z M13.1,3.5"/>
</g>
</svg>
