<?xml version="1.0" encoding="utf-8"?>
<!-- Generator: Adobe Illustrator 21.0.0, SVG Export Plug-In . SVG Version: 6.00 Build 0)  -->
<svg version="1.1" id="Layer_1" xmlns="http://www.w3.org/2000/svg" xmlns:xlink="http://www.w3.org/1999/xlink" x="0px" y="0px"
	 viewBox="0 0 42.7 30.8" style="enable-background:new 0 0 42.7 30.8;" xml:space="preserve">
<style type="text/css">
	.st0{fill:#6E6F72;}
	.st1{fill:#BCBEC0;}
	.st2{clip-path:url(#SVGID_2_);fill-rule:evenodd;clip-rule:evenodd;fill:#6E6F72;}
</style>
<g>
	<path class="st0" d="M37.7,0H5C2.3,0,0,2.3,0,5v20.8c0,2.8,2.2,5,5,5h32.7c2.8,0,5-2.2,5-5V5C42.7,2.3,40.5,0,37.7,0z M9.3,20.6
		l-2.5-9.1c-0.9-0.5-1.9-0.9-3-1.2l0-0.2h4.6c0.6,0,1.1,0.2,1.3,0.9l1,4.8l0.3,1.5l2.8-7.1h3l-4.5,10.5L9.3,20.6z M19,20.6h-2.8
		l1.8-10.5h2.9L19,20.6z M24,20.8c-1.3,0-2.5-0.3-3.2-0.6l0.4-2.3l0.4,0.2c0.9,0.4,1.5,0.5,2.7,0.5c0.8,0,1.7-0.3,1.7-1
		c0-0.5-0.4-0.8-1.5-1.3c-1.1-0.5-2.5-1.3-2.5-2.8c0-2,2-3.5,4.8-3.5c1.1,0,2,0.2,2.6,0.4L29,12.7l-0.3-0.1
		c-0.5-0.2-1.2-0.4-2.1-0.4c-1.1,0-1.6,0.5-1.6,0.9c0,0.5,0.6,0.8,1.6,1.3c1.6,0.7,2.4,1.7,2.4,2.8C28.9,19.4,27,20.8,24,20.8z
		 M36.3,20.6c0,0-0.3-1.2-0.3-1.6c-0.4,0-3.3,0-3.6,0c-0.1,0.3-0.6,1.6-0.6,1.6h-3L33,11c0.3-0.7,0.8-0.9,1.5-0.9h2.2L39,20.6H36.3z
		"/>
	<path class="st0" d="M34.7,13c-0.1,0.4-0.4,1-0.4,1c0,0-0.9,2.3-1.1,2.9h2.4c-0.1-0.5-0.7-3-0.7-3L34.7,13z"/>
</g>
</svg>
