<?xml version="1.0" encoding="utf-8"?>
<!-- Generator: Adobe Illustrator 21.0.0, SVG Export Plug-In . SVG Version: 6.00 Build 0)  -->
<svg version="1.1" id="Layer_1" xmlns="http://www.w3.org/2000/svg" xmlns:xlink="http://www.w3.org/1999/xlink" x="0px" y="0px"
	 viewBox="0 0 237.3 63.7" style="enable-background:new 0 0 237.3 63.7;" xml:space="preserve">
<style type="text/css">
	.st0{fill:#FFFFFF;}
</style>
<g>
	<g>
		<path class="st0" d="M11.2,13.1c1.1,1.6,1.4,3.6,1.1,5.5c-0.1,0.6,0.2,0.8,0.6,0.4c1.3-1,2.2-2.3,2.5-3.9c0.4-2-0.1-3.9-1.3-5.5
			C13.7,9.2,13,9,12.5,9.3c-0.7,0.4-1.4,1-1.9,1.6c-0.4,0.4-0.3,1.1,0.1,1.5C10.8,12.6,11,12.9,11.2,13.1L11.2,13.1z M11.2,13.1"/>
		<path class="st0" d="M18,11.7c-0.3,0-0.6,0-1,0c-0.6,0-0.9,0.6-0.8,1.2c0.1,0.8,0.1,1.6-0.1,2.4c-0.4,1.9-1.6,3.6-3.3,4.8
			c0,0-0.1,0.1-0.1,0.1c-0.1,0,0.3,0.1,0.9,0c1.4-0.2,2.7-0.9,3.7-1.9c1.4-1.4,2-3.4,1.8-5.4C19.1,12.3,18.6,11.7,18,11.7L18,11.7z
			 M18,11.7"/>
		<path class="st0" d="M10.2,21.8c-1.7,1.1-3.8,1.5-5.7,1.1C3.7,22.8,3,22.5,2.3,22c-0.5-0.3-1.1-0.2-1.4,0.3
			c-0.2,0.3-0.3,0.6-0.4,0.9c-0.2,0.5,0.1,1.3,0.6,1.5c1.7,0.9,3.8,1.2,5.6,0.5c1.4-0.5,2.5-1.5,3.2-2.7c0.3-0.5,0.4-0.9,0.4-0.8
			C10.3,21.7,10.2,21.8,10.2,21.8L10.2,21.8z M10.2,21.8"/>
		<path class="st0" d="M9.3,21.4c0.5-0.3,0.4-0.6-0.2-0.7c-1.9-0.4-3.6-1.5-4.6-3.2c-0.2-0.3-0.3-0.5-0.5-0.8
			c-0.2-0.5-0.8-0.8-1.4-0.7c-0.8,0.2-1.5,0.6-2.2,1.2c-0.5,0.3-0.6,1.1-0.3,1.6c1,1.7,2.6,3,4.5,3.4C6.3,22.5,7.9,22.2,9.3,21.4
			L9.3,21.4z M9.3,21.4"/>
		<path class="st0" d="M5.7,10.6c-0.6-0.1-1.2,0.3-1.4,0.9c-0.5,1.9-0.3,3.9,0.8,5.6c1.1,1.7,2.9,2.7,4.8,3c0.6,0.1,1.2-0.3,1.4-0.9
			c0.5-1.9,0.3-3.9-0.8-5.6C9.4,11.9,7.7,10.9,5.7,10.6L5.7,10.6z M5.7,10.6"/>
	</g>
	<g>
		<path class="st0" d="M126.1,15.9H117l-0.7,3.4v-0.4c0-1.8-1.5-3.2-5.2-3.2c-11.1,0-16.4,13.7-16.4,22.3c0,0.1,0,0.2,0,0.3
			c-1.1,2.3-2.3,3.8-4.5,3.8c-1.9,0-2.5-1.1-2.5-2.7c0-3.6,3.1-11.3,3.1-16.4c0-5.1-3-7.2-7.1-7.2c-2.4,0-5.8,0.7-8.9,5.4
			c-0.7-3.9-3.2-5.5-6.6-5.5c-2.2,0-5.1,0.6-7.8,3.6l0.7-3.3H52l-4.3,20.5c-1,3.2-3.2,5.6-5.7,5.6c-1.8,0-2.6-0.6-2.6-2.4
			c0-0.6,0.1-1.2,0.3-2l7.3-34.4l-9.4,1.3l-6.8,31.9c-0.3,1.5-0.5,2.9-0.5,4.1c0,5.3,3,7.6,6.8,7.6c2.3,0,5.9-0.6,9.1-4.2l-0.8,3.8
			h9.2l4.3-20.4c1-3.2,2.7-5.9,5.2-5.9c1.4,0,1.9,1.4,1.9,2.8c0,0.6-0.1,1.1-0.2,1.6l-4.6,22h9.2l4.3-20.4c1-3.2,2.7-5.9,5-5.9
			c1.5,0,2.3,1.1,2.3,3.2c0,4.1-2.9,11.9-2.9,16.2c0,3.6,2,7.2,7.5,7.2c2.5,0,6-0.8,9-5.6c1.3,4.1,4.5,5.6,7.8,5.6
			c4.5,0,7.6-3,9.5-5.9c0.5,3.7,2.8,5.9,6.2,5.9c3.4,0,4.6-2,6.4-6.4c-0.4,0.2-0.8,0.3-1.4,0.3c-1.8,0-2.6-0.6-2.6-2.4
			c0-0.6,0.1-1.2,0.3-2L126.1,15.9z M112.6,36.4c-0.8,3.7-3.4,5.6-5.3,5.6c-1.1,0-3.2-0.1-3.2-5c0-6,3.5-17.4,8.9-17.4
			c2,0,2.6,1.7,2.6,2.4L112.6,36.4z"/>
		<polygon class="st0" points="209.9,0 203.2,0 197.4,12 202.2,12 		"/>
		<path class="st0" d="M232.4,39.6c0-0.6,0.1-1.2,0.3-2l4.6-21.7h-9.2l-0.7,3.4v-0.4c0-1.8-1.5-3.2-5.2-3.2
			c-11.1,0-16.4,13.7-16.4,22.3c0,0.1,0,0.3,0,0.4c-1.2,2.2-3,3.7-4.9,3.7c-1.8,0-2.6-0.6-2.6-2.4c0-0.6,0.1-1.2,0.3-2l4.6-21.7H194
			l-4.3,20.4c0,0,0,0,0,0c-1,3.2-2.7,5.6-5.2,5.6c-1.8,0-2.6-0.6-2.6-2.4c0-0.6,0.1-1.2,0.3-2l4.6-21.7h-9.2l-4.3,20.4
			c-1,3.2-2.6,5.6-5.1,5.6c-1.4,0-1.9-1.1-1.9-2.6c0-0.6,0.1-1.1,0.2-1.8l4.6-21.7h-9.2l-4.3,20.4c-1.8,5.5-4.1,7.7-8,9.1l6.3-29.5
			h-9.2l-0.7,3.3v-0.4c0-1.8-1.5-3.2-5.2-3.2c-11.1,0-16.4,13.7-16.4,22.3c0,7.6,4.1,10.3,8.5,10.3c3.3,0,5.8-1.5,7.6-3.5l-0.8,3.4
			c-4.8,1.5-10.4,4.1-10.4,9.5c0,4.1,3.2,6.2,7.1,6.2c4.2,0,9.6-1.7,11.5-10.8l1-4.6c2.7-0.7,5.8-2.1,8.3-5.6
			c0.7,3.8,3.4,5.4,6.6,5.4c2.7,0,6.2-0.8,9.4-6.1c0.4,3.9,2.7,6.1,6.3,6.1c2.6,0,6.5-0.8,9.8-5.6c0.7,3.9,3.3,5.6,6.6,5.6
			c2.6,0,6.9-0.8,10.5-5.9c1.3,4.3,4.5,5.9,7.9,5.9c4.5,0,7.6-3,9.5-5.9c0.5,3.7,2.8,5.9,6.2,5.9c3.4,0,4.6-2,6.4-6.4
			c-0.4,0.2-0.8,0.3-1.4,0.3C233.3,42,232.4,41.4,232.4,39.6z M138.7,53c-0.8,3.8-2.4,5.7-3.7,5.7c-1.4,0-2.2-1.2-2.2-2.1
			c0-2.5,3-4.2,6.2-5.4L138.7,53z M142.1,37c-0.9,3.2-3.4,5-5.1,5c-1.1,0-3.2-0.1-3.2-5c0-6,3.5-17.4,8.9-17.4c2,0,2.5,1.7,2.6,2.4
			L142.1,37z M223.8,36.4c-0.8,3.7-3.4,5.6-5.3,5.6c-1.1,0-3.2-0.1-3.2-5c0-6,3.5-17.4,8.9-17.4c2,0,2.6,1.7,2.6,2.4L223.8,36.4z"/>
	</g>
	<path class="st0" d="M26.7,39.6c0-0.5,0.1-1.2,0.2-1.9L31.4,17h-8.8l-0.7,3.2v-0.4c0-1.2-0.7-2.3-2.4-2.8c-0.5,0.6-1.1,1.4-1.9,2.2
		c-2.4,2.5-6,2.7-6,2.7s0.3,0.4-3.5,3.6c-1.3,1.1-2.8,1.3-4.1,1.2C2.2,30.5,1.4,34.6,1.4,38c0,7.2,4,9.8,8.1,9.8
		c4.3,0,7.2-2.9,9.1-5.7c0.5,3.5,2.7,5.7,6,5.7s4.4-1.9,6.1-6.1c-0.4,0.2-0.8,0.2-1.3,0.2C27.5,41.9,26.7,41.3,26.7,39.6z
		 M18.5,36.5c-0.7,3.5-3.3,5.3-5,5.3c-1.1,0-3-0.1-3-4.7c0-5.7,3.3-16.7,8.5-16.7c1.9,0,2.5,1.6,2.5,2.3L18.5,36.5z"/>
</g>
</svg>
