<?xml version="1.0" encoding="utf-8"?>
<!-- Generator: Adobe Illustrator 21.0.0, SVG Export Plug-In . SVG Version: 6.00 Build 0)  -->
<svg version="1.1" id="Layer_1" xmlns="http://www.w3.org/2000/svg" xmlns:xlink="http://www.w3.org/1999/xlink" x="0px" y="0px"
	 viewBox="0 0 1024 1024" style="enable-background:new 0 0 1024 1024;" xml:space="preserve">
<style type="text/css">
	.st0{fill:#FFFFFF;}
</style>
<title></title>
<g id="icomoon-ignore">
</g>
<path class="st0" d="M1024,704c0,35.3-28.7,64-64,64v69.9c37.2,13.2,64,48.4,64,90.1c0,53-43,96-96,96c-41.8,0-76.9-26.8-90.1-64
	H768c0,35.3-28.7,64-64,64s-64-28.7-64-64h-64c0,35.3-28.7,64-64,64s-64-28.7-64-64h-64c0,35.3-28.7,64-64,64s-64-28.7-64-64h-69.9
	c-13.2,37.2-48.4,64-90.1,64c-53,0-96-43-96-96c0-41.8,26.8-76.9,64-90.1V768c-35.3,0-64-28.7-64-64s28.7-64,64-64v-64
	c-35.3,0-64-28.7-64-64s28.7-64,64-64v-64c-35.3,0-64-28.7-64-64s28.7-64,64-64v-69.9C26.8,172.9,0,137.7,0,96C0,43,43,0,96,0
	c41.7,0,76.9,26.8,90.1,64H256c0-35.3,28.7-64,64-64s64,28.7,64,64h64c0-35.3,28.7-64,64-64s64,28.7,64,64h64c0-35.3,28.7-64,64-64
	s64,28.7,64,64h69.9C851.1,26.8,886.2,0,928,0c53,0,96,43,96,96c0,41.7-26.8,76.9-64,90.1V256c35.3,0,64,28.7,64,64s-28.7,64-64,64
	v64c35.3,0,64,28.7,64,64s-28.7,64-64,64v64C995.3,640,1024,668.7,1024,704z M832,224c0-17.7-14.3-32-32-32H224
	c-17.7,0-32,14.3-32,32v576c0,17.7,14.3,32,32,32h576c17.7,0,32-14.3,32-32V224z"/>
</svg>
