<?xml version="1.0" encoding="utf-8"?>
<!-- Generator: Adobe Illustrator 21.0.0, SVG Export Plug-In . SVG Version: 6.00 Build 0)  -->
<svg version="1.1" id="Layer_1" xmlns="http://www.w3.org/2000/svg" xmlns:xlink="http://www.w3.org/1999/xlink" x="0px" y="0px"
	 viewBox="0 0 37 37" style="enable-background:new 0 0 37 37;" xml:space="preserve">
<style type="text/css">
	.st0{fill:#FFFFFF;}
	.st1{fill:#38761D;}
	.st2{font-family:'MyriadPro-Bold';}
	.st3{font-size:20.1922px;}
</style>
<g>
	<g>
		<path class="st0" d="M27,30.4c0,0.7,0.2,1.2,0.7,1.7c0.5,0.5,1,0.7,1.7,0.7c0.7,0,1.2-0.2,1.7-0.7c0.5-0.5,0.7-1,0.7-1.7
			c0-0.7-0.2-1.2-0.7-1.7c-0.5-0.5-1-0.7-1.7-0.7c-0.7,0-1.2,0.2-1.7,0.7C27.2,29.1,27,29.7,27,30.4L27,30.4z M27,30.4"/>
		<path class="st0" d="M33.9,8.9c-0.2-0.2-0.5-0.4-0.9-0.4H10.3c0-0.1,0-0.2-0.1-0.5c0-0.2-0.1-0.4-0.1-0.6c0-0.1-0.1-0.3-0.1-0.5
			C9.9,6.8,9.8,6.7,9.7,6.6C9.6,6.5,9.5,6.4,9.4,6.3C9.2,6.2,9,6.2,8.8,6.2H4c-0.3,0-0.6,0.1-0.9,0.4C2.9,6.8,2.8,7,2.8,7.4
			c0,0.3,0.1,0.6,0.4,0.9C3.4,8.5,3.7,8.6,4,8.6h3.9l3.3,15.6c0,0.1-0.2,0.3-0.4,0.7c-0.2,0.4-0.4,0.8-0.6,1.1
			c-0.1,0.3-0.2,0.6-0.2,0.7c0,0.3,0.1,0.6,0.4,0.9c0.2,0.2,0.5,0.4,0.9,0.4h19.4c0.3,0,0.6-0.1,0.9-0.4c0.2-0.2,0.4-0.5,0.4-0.9
			c0-0.3-0.1-0.6-0.4-0.8c-0.2-0.2-0.5-0.4-0.9-0.4H13.2c0.3-0.6,0.5-1,0.5-1.2c0-0.1,0-0.3,0-0.4c0-0.2-0.1-0.3-0.1-0.5
			c0-0.2-0.1-0.3-0.1-0.4l19.7-2.3c0.3,0,0.6-0.2,0.8-0.4c0.2-0.2,0.3-0.5,0.3-0.8V9.8C34.2,9.5,34.1,9.2,33.9,8.9L33.9,8.9z
			 M33.9,8.9"/>
		<path class="st0" d="M10,30.4c0,0.7,0.2,1.2,0.7,1.7c0.5,0.5,1,0.7,1.7,0.7c0.7,0,1.2-0.2,1.7-0.7c0.5-0.5,0.7-1,0.7-1.7
			c0-0.7-0.2-1.2-0.7-1.7c-0.5-0.5-1-0.7-1.7-0.7c-0.7,0-1.2,0.2-1.7,0.7C10.3,29.1,10,29.7,10,30.4L10,30.4z M10,30.4"/>
	</g>
	<text transform="matrix(0.8283 0 0 1 14.871 21.1284)" class="st1 st2 st3">+</text>
</g>
</svg>
