<?xml version="1.0" encoding="utf-8"?>
<!-- Generator: Adobe Illustrator 21.0.0, SVG Export Plug-In . SVG Version: 6.00 Build 0)  -->
<svg version="1.1" id="Layer_1" xmlns="http://www.w3.org/2000/svg" xmlns:xlink="http://www.w3.org/1999/xlink" x="0px" y="0px"
	 viewBox="0 0 42.7 30.8" style="enable-background:new 0 0 42.7 30.8;" xml:space="preserve">
<style type="text/css">
	.st0{fill:#6E6F72;}
	.st1{fill:#BCBEC0;}
	.st2{clip-path:url(#SVGID_2_);fill-rule:evenodd;clip-rule:evenodd;fill:#6E6F72;}
</style>
<circle class="st0" cx="22.2" cy="25.4" r="1"/>
<path class="st0" d="M28.5,11.7l-0.6,0l0,5.4l0.5,0c0.5,0,0.9-0.1,1.2-0.4c0.2-0.3,0.3-0.8,0.4-1.5l0-1.4c0-0.8-0.1-1.3-0.3-1.6
	C29.4,11.9,29,11.7,28.5,11.7z"/>
<polygon class="st0" points="16,15.3 17.5,15.4 16.8,12.5 "/>
<path class="st0" d="M35.5,11.6c-0.4,0-0.8,0.2-1,0.5c-0.2,0.3-0.3,0.9-0.3,1.6l0,1.4c0,0.7,0.1,1.2,0.3,1.6c0.2,0.3,0.5,0.5,1,0.5
	c0.4,0,0.7-0.2,1-0.5c0.2-0.3,0.3-0.8,0.3-1.5l0-1.4c0-0.7-0.1-1.3-0.3-1.6C36.3,11.8,35.9,11.6,35.5,11.6z"/>
<g>
	<path class="st0" d="M19.9,5.2h4.6c0.1,0,0.2-0.2,0.2-0.4c0-0.2-0.1-0.4-0.2-0.4h-4.6c-0.1,0-0.2,0.2-0.2,0.4
		C19.7,5,19.8,5.2,19.9,5.2z"/>
	<path class="st0" d="M37.7,0H5C2.3,0,0,2.3,0,5v20.8c0,2.8,2.2,5,5,5h32.7c2.8,0,5-2.2,5-5V5C42.7,2.3,40.5,0,37.7,0z M16,5
		c0-0.9,0.7-1.6,1.6-1.6h9.2c0.9,0,1.6,0.7,1.6,1.6v2.9h-1.2V6.1h-10v1.8H16V5z M25.3,17.1l0,1.4l-4.5,0l0-8.1l1.6,0l0,6.7
		L25.3,17.1z M9.7,13c0.2,0.2,0.5,0.4,0.9,0.6c0.8,0.3,1.4,0.6,1.7,1.1s0.5,0.9,0.5,1.6c0,0.7-0.2,1.3-0.7,1.6
		c-0.5,0.4-1.1,0.6-1.8,0.6c-0.5,0-1-0.1-1.4-0.3c-0.4-0.2-0.8-0.5-1-0.9c-0.2-0.4-0.4-0.9-0.4-1.4l1.6,0c0,0.5,0.1,0.8,0.3,1
		s0.5,0.3,0.9,0.3c0.6,0,0.9-0.3,0.9-0.9c0-0.3-0.1-0.6-0.2-0.7c-0.2-0.2-0.5-0.3-0.9-0.5c-0.8-0.3-1.4-0.7-1.7-1.1
		c-0.4-0.4-0.5-0.9-0.5-1.5c0-0.7,0.2-1.2,0.7-1.6c0.5-0.4,1.1-0.6,1.8-0.6c0.5,0,0.9,0.1,1.3,0.3c0.4,0.2,0.7,0.5,0.9,0.9
		c0.2,0.4,0.3,0.8,0.3,1.3l-1.6,0c0-0.4-0.1-0.7-0.2-0.9s-0.4-0.3-0.7-0.3c-0.3,0-0.5,0.1-0.7,0.2c-0.2,0.2-0.2,0.4-0.2,0.7
		C9.5,12.6,9.6,12.8,9.7,13z M15.2,18.4l-1.7,0l2.6-8.1l1.5,0l2.5,8.1l-1.7,0l-0.4-1.7l-2.2,0L15.2,18.4z M28.4,26.4
		c0,0.9-0.7,1.6-1.6,1.6h-9.2c-0.9,0-1.6-0.7-1.6-1.6v-5.7c0.2,0,0.3,0,0.5,0h0.7v2.2h10v-2.2h1.2V26.4z M31.5,15
		c0,1.1-0.3,1.9-0.9,2.5c-0.6,0.6-1.3,0.9-2.3,0.9l-2.1,0l0-8.1l2.1,0c0.9,0,1.7,0.3,2.3,0.9s0.8,1.4,0.8,2.5L31.5,15z M38.4,15.2
		c0,1.1-0.3,1.9-0.8,2.5c-0.5,0.6-1.2,0.9-2.1,0.9c-0.9,0-1.6-0.3-2.1-0.9c-0.5-0.6-0.8-1.4-0.8-2.5l0-1.4c0-1.1,0.3-2,0.8-2.6
		c0.5-0.6,1.2-0.9,2.2-0.9c0.9,0,1.6,0.3,2.1,0.9c0.5,0.6,0.8,1.5,0.8,2.6L38.4,15.2z"/>
</g>
</svg>
