<svg id="Layer_1" data-name="Layer 1" xmlns="http://www.w3.org/2000/svg" viewBox="0 0 37.39 32.39"><defs><style>.cls-1{fill:#565656;}</style></defs><title>Untitled-1</title><path class="cls-1" d="M37.11,10.17,15.92,0a.5.5,0,0,0-.66.23L10.65,9.92h2.51l3.38-7.09,18.37,8.77-5.74,12-3.24-1.54v6.35l2,1a.5.5,0,0,0,.66-.24l8.75-18.33a.49.49,0,0,0-.23-.66Z"/><path class="cls-1" d="M24,11.09H.5a.5.5,0,0,0-.5.49V31.9a.5.5,0,0,0,.5.5H24a.49.49,0,0,0,.49-.5V11.58a.49.49,0,0,0-.49-.49ZM22.62,26.66H21.13c-.87-2.22-1.94-5.33-3.56-4.92-1.9.49-2.84,4.92-2.84,4.92s-1-5-3.65-7.68-5.27,7.68-5.27,7.68H2.27V13.34H22.62Zm0,0"/><path class="cls-1" d="M7.21,16.19a1.66,1.66,0,1,1-1.66-1.66,1.66,1.66,0,0,1,1.66,1.66Zm0,0"/><path class="cls-1" d="M16.69,17.37a5.54,5.54,0,0,0,1-.1,3.31,3.31,0,0,0,1.28.25c1.22,0,2.22-.6,2.22-1.33s-1-1.34-2.22-1.34a3.24,3.24,0,0,0-1.24.23.78.78,0,0,0-.56-.23h-.32a.79.79,0,0,0-.78.71c-1,.1-1.73.46-1.73.89s1,.93,2.31.93Zm0,0"/></svg>