<svg id="Layer_1" data-name="Layer 1" xmlns="http://www.w3.org/2000/svg" viewBox="0 0 29.28 35.14"><defs><style>.cls-1{fill:#565656;}</style></defs><title>Untitled-1</title><path class="cls-1" d="M24.77,25.7H22.84V24.58a.91.91,0,0,1,.91-.91h.12a.91.91,0,0,1,.91.91Zm-7.23-2.4a.82.82,0,0,0-.89.73v5.45a.91.91,0,0,0,1.78,0V24a.83.83,0,0,0-.89-.73Zm11.75-3V30.62a4.67,4.67,0,0,1-4.79,4.52H4.79A4.67,4.67,0,0,1,0,30.62V20.25a4.67,4.67,0,0,1,4.79-4.52h19.7a4.68,4.68,0,0,1,4.79,4.52ZM6.1,31.74V20.83H8.55V19.21H2v1.59h2V31.74h2Zm7.32-9.29h-2v5.83a10.46,10.46,0,0,1,0,1.41c-.17.45-.91.93-1.2,0a11.71,11.71,0,0,1,0-1.42V22.45h-2v5.78c0,.89,0,1.55,0,1.85,0,.53,0,1.15.52,1.5.92.66,2.67-.1,3.11-1v1.2h1.63V22.45Zm6.51,6.67V24.27c0-1.85-1.38-3-3.26-1.46V19.21h-2V31.66l1.67,0,.15-.78c2.14,2,3.48.62,3.48-1.73Zm6.37-.64H24.78c0,.06,0,.13,0,.21v.85a.83.83,0,0,1-.83.83h-.3a.83.83,0,0,1-.84-.83V27.31h3.5V26a20.75,20.75,0,0,0-.1-2.47c-.25-1.74-2.69-2-3.92-1.13a2.31,2.31,0,0,0-.86,1.15,6.47,6.47,0,0,0-.26,2.05v2.89c0,4.81,5.84,4.13,5.15,0ZM18.48,12.78a1.37,1.37,0,0,0,.49.62,1.42,1.42,0,0,0,.83.23,1.29,1.29,0,0,0,.78-.24,1.86,1.86,0,0,0,.57-.73l0,.8h2.27V3.8H21.6v7.51a.74.74,0,0,1-1.49,0V3.8H18.24v6.51c0,.83,0,1.38,0,1.66a2.84,2.84,0,0,0,.2.8ZM11.6,7.33a8,8,0,0,1,.23-2.17A2.32,2.32,0,0,1,14.2,3.43a2.83,2.83,0,0,1,1.35.3,2.25,2.25,0,0,1,.87.79,3.12,3.12,0,0,1,.42,1A8,8,0,0,1,17,7.11V9.55a13.27,13.27,0,0,1-.11,2,3.12,3.12,0,0,1-.45,1.17,2.12,2.12,0,0,1-.88.8,2.77,2.77,0,0,1-1.23.26A3.4,3.4,0,0,1,13,13.54a1.8,1.8,0,0,1-.84-.67,3,3,0,0,1-.43-1.08,10.43,10.43,0,0,1-.13-1.9V7.33Zm1.78,3.83a.91.91,0,1,0,1.8,0V6a.91.91,0,1,0-1.8,0ZM7.1,13.76H9.24V6.35L11.77,0H9.43L8.08,4.72,6.72,0H4.4L7.09,6.36Zm0,0"/></svg>