<?xml version="1.0" encoding="utf-8"?>
<!-- Generator: Adobe Illustrator 21.0.0, SVG Export Plug-In . SVG Version: 6.00 Build 0)  -->
<svg version="1.1" id="Layer_1" xmlns="http://www.w3.org/2000/svg" xmlns:xlink="http://www.w3.org/1999/xlink" x="0px" y="0px"
	 viewBox="0 0 35 34.7" style="enable-background:new 0 0 35 34.7;" xml:space="preserve">
<style type="text/css">
	.st0{fill:#A8ABAD;}
</style>
<g>
	<path class="st0" d="M35,17.5c0-4.7-1.8-9.1-5.1-12.4C26.6,1.8,22.2,0,17.5,0C12.8,0,8.4,1.8,5.1,5.1C1.8,8.4,0,12.8,0,17.5v8.3
		c0,4.7,3.8,8.5,8.5,8.5c0.6,0,1-0.4,1-1v-15c0-0.6-0.5-1-1-1c-2.6,0-4.9,1.2-6.5,3v-2.8C2,9,9,2,17.5,2C26.1,2,33,9,33,17.5
		c0,0.1,0,0.1,0,0.2c0,0.1,0,0.1,0,0.2v2.8c-1.6-1.8-3.9-3-6.5-3c-0.6,0-1,0.5-1,1v15c0,0.6,0.5,1,1,1c4.7,0,8.5-3.8,8.5-8.5v-8.3
		c0-0.1,0-0.1,0-0.2C35,17.7,35,17.6,35,17.5L35,17.5z M7.5,19.4v12.8C4.4,31.7,2,29,2,25.8C2,22.6,4.4,19.9,7.5,19.4L7.5,19.4z
		 M27.6,32.6V19.8c3.1,0.5,5.5,3.2,5.5,6.4C33,29.5,30.6,32.1,27.6,32.6L27.6,32.6z M27.6,32.6"/>
</g>
</svg>
