<svg id="Layer_1" data-name="Layer 1" xmlns="http://www.w3.org/2000/svg" viewBox="0 0 175.18 175.18"><defs><style>.cls-1{fill:#e7e8e9;}</style></defs><title>carita feliz</title><path class="cls-1" d="M163.44,43.62a87.21,87.21,0,0,0-31.88-31.87A85.66,85.66,0,0,0,87.59,0a85.66,85.66,0,0,0-44,11.75A87.15,87.15,0,0,0,11.75,43.62,85.69,85.69,0,0,0,0,87.59a85.68,85.68,0,0,0,11.75,44,87.18,87.18,0,0,0,31.87,31.87,85.71,85.71,0,0,0,44,11.75,85.66,85.66,0,0,0,44-11.75,87.2,87.2,0,0,0,31.88-31.87,85.75,85.75,0,0,0,11.74-44,85.73,85.73,0,0,0-11.74-44Zm-8.67,72.31a72,72,0,0,1-38.84,38.83,71.95,71.95,0,0,1-56.68,0,72,72,0,0,1-38.84-38.83,72,72,0,0,1,0-56.68A72,72,0,0,1,59.25,20.42a71.95,71.95,0,0,1,56.68,0,72,72,0,0,1,38.84,38.83,72,72,0,0,1,0,56.68Zm0,0"/><path class="cls-1" d="M113.6,103.33a42.91,42.91,0,0,0-26-8.44,42.9,42.9,0,0,0-26,8.44,42.1,42.1,0,0,0-15.74,22.24,7.32,7.32,0,0,0,10.32,8.67,7,7,0,0,0,3.59-4.33,29.09,29.09,0,0,1,27.83-20.42,29.09,29.09,0,0,1,27.83,20.42,6.93,6.93,0,0,0,3.65,4.33,7.17,7.17,0,0,0,5.58.46,7.26,7.26,0,0,0,4.68-9.13,42.07,42.07,0,0,0-15.73-22.24Zm0,0"/><path class="cls-1" d="M58.39,73A14.61,14.61,0,0,0,73,58.39a14.61,14.61,0,0,0-14.6-14.6,14.61,14.61,0,0,0-14.6,14.6A14.61,14.61,0,0,0,58.39,73Zm0,0"/><path class="cls-1" d="M116.79,43.79a14.61,14.61,0,0,0-14.6,14.6,14.6,14.6,0,1,0,24.92-10.32,14.08,14.08,0,0,0-10.32-4.28Zm0,0"/></svg>