<?xml version="1.0" encoding="utf-8"?>
<!-- Generator: Adobe Illustrator 21.0.0, SVG Export Plug-In . SVG Version: 6.00 Build 0)  -->
<svg version="1.1" id="Layer_1" xmlns="http://www.w3.org/2000/svg" xmlns:xlink="http://www.w3.org/1999/xlink" x="0px" y="0px"
	 viewBox="0 0 35.7 33.3" style="enable-background:new 0 0 35.7 33.3;" xml:space="preserve">
<style type="text/css">
	.st0{fill:#A7AAAC;}
</style>
<g>
	<path class="st0" d="M15.1,27c-1.7,0-3.2,1.4-3.2,3.2s1.4,3.2,3.2,3.2s3.2-1.4,3.2-3.2S16.8,27,15.1,27z M15.1,31.5
		c-0.8,0-1.4-0.6-1.4-1.4s0.6-1.4,1.4-1.4c0.8,0,1.4,0.6,1.4,1.4C16.5,30.9,15.9,31.5,15.1,31.5z"/>
	<path class="st0" d="M26.2,27c-1.7,0-3.2,1.4-3.2,3.2s1.4,3.2,3.2,3.2c1.7,0,3.2-1.4,3.2-3.2C29.3,28.4,27.9,27,26.2,27z
		 M26.2,31.5c-0.8,0-1.4-0.6-1.4-1.4s0.6-1.4,1.4-1.4c0.8,0,1.4,0.6,1.4,1.4C27.6,30.9,27,31.5,26.2,31.5z"/>
	<path class="st0" d="M34.1,8.1c-0.7,3.5-1.5,7.1-2.2,10.6c-0.1,0.4-0.4,0.7-0.8,0.7H10.2c-0.4,0-0.8-0.3-0.8-0.7L7.1,7.5L6.7,5.7
		L6.2,3.5C6.1,2.6,5.5,1.9,4.7,1.6L1.2,0.1c-0.4-0.2-1,0-1.2,0.5c-0.2,0.4,0,1,0.5,1.2L4,3.2c0.3,0.1,0.4,0.3,0.5,0.6l4,19.6
		c0.3,1.2,1.3,2.1,2.6,2.1h20.5c0.5,0,0.9-0.4,0.9-0.9s-0.4-0.9-0.9-0.9H11.1c-0.4,0-0.8-0.3-0.8-0.7l-0.2-0.8c-0.1-0.5,0.3-1,0.8-1
		h20.8c0.8,0,1.6-0.6,1.7-1.4l2.3-11.3c0.1-0.5-0.3-1-0.8-1l0,0C34.5,7.5,34.1,7.8,34.1,8.1z"/>
</g>
</svg>
