<?xml version="1.0" encoding="utf-8"?>
<!-- Generator: Adobe Illustrator 21.0.0, SVG Export Plug-In . SVG Version: 6.00 Build 0)  -->
<svg version="1.1" id="Layer_1" xmlns="http://www.w3.org/2000/svg" xmlns:xlink="http://www.w3.org/1999/xlink" x="0px" y="0px"
	 viewBox="0 0 39.6 37.3" style="enable-background:new 0 0 39.6 37.3;" xml:space="preserve">
<style type="text/css">
	.st0{fill:#A7A9AC;}
	.st1{fill:#FFFFFF;}
</style>
<g>
	<path class="st1" d="M17.1,28.3c-1.6,0-3,1.3-3,3c0,1.6,1.3,3,3,3s3-1.3,3-3C20,29.6,18.7,28.3,17.1,28.3z M17.1,32.5
		c-0.7,0-1.3-0.6-1.3-1.3c0-0.7,0.6-1.3,1.3-1.3c0.7,0,1.3,0.6,1.3,1.3C18.4,32,17.8,32.5,17.1,32.5z"/>
	<path class="st1" d="M27.4,28.3c-1.6,0-3,1.3-3,3c0,1.6,1.3,3,3,3c1.6,0,3-1.3,3-3C30.4,29.6,29.1,28.3,27.4,28.3z M27.4,32.5
		c-0.7,0-1.3-0.6-1.3-1.3c0-0.7,0.6-1.3,1.3-1.3c0.7,0,1.3,0.6,1.3,1.3C28.7,32,28.2,32.5,27.4,32.5z"/>
	<path class="st1" d="M16.4,14.4h11.8c0.5,0,0.8-0.4,0.8-0.8s-0.4-0.8-0.8-0.8H16.4c-0.5,0-0.8,0.4-0.8,0.8
		C15.5,14,15.9,14.4,16.4,14.4z"/>
	<path class="st1" d="M27.5,17H17c-0.5,0-0.8,0.4-0.8,0.8c0,0.5,0.4,0.8,0.8,0.8h10.5c0.5,0,0.8-0.4,0.8-0.8
		C28.4,17.4,28,17,27.5,17z"/>
	<path class="st1" d="M36.2,9.1c-0.3-0.4-0.8-0.6-1.3-0.6H9.3L8.7,5.9c-0.1-0.5-0.5-1-1-1.2L4.2,3.2C3.7,3,3.2,3.2,3.1,3.6
		C2.9,4,3.1,4.5,3.5,4.7l3.6,1.6l4,19.4c0.2,0.8,0.8,1.3,1.6,1.3h19.8c0.5,0,0.8-0.4,0.8-0.8s-0.4-0.8-0.8-0.8H12.7l-0.5-2.4h20.4
		c0.8,0,1.5-0.6,1.6-1.3l2.3-11.2C36.7,9.9,36.5,9.4,36.2,9.1z M32.6,21.3H11.9L9.6,10.1l25.3,0L32.6,21.3z"/>
</g>
</svg>
