<?xml version="1.0" encoding="utf-8"?>
<!-- Generator: Adobe Illustrator 21.0.0, SVG Export Plug-In . SVG Version: 6.00 Build 0)  -->
<svg version="1.1" id="Layer_1" xmlns="http://www.w3.org/2000/svg" xmlns:xlink="http://www.w3.org/1999/xlink" x="0px" y="0px"
	 viewBox="0 0 39.6 37.3" style="enable-background:new 0 0 39.6 37.3;" xml:space="preserve">
<style type="text/css">
	.st0{fill:#A7A9AC;}
	.st1{fill:#FFFFFF;}
</style>
<g>
	<g>
		<path class="st0" d="M16,18.7c0,0.1,0,0.2,0,0.3l9.2,4.6c0.8-0.7,1.8-1.1,2.9-1.1c2.5,0,4.5,2,4.5,4.5c0,2.5-2,4.5-4.5,4.5
			c-2.5,0-4.5-2-4.5-4.5c0-0.1,0-0.2,0-0.3l-9.2-4.6c-0.8,0.7-1.8,1.1-2.9,1.1c-2.5,0-4.5-2-4.5-4.5c0-2.5,2-4.5,4.5-4.5
			c1.1,0,2.1,0.4,2.9,1.1l9.2-4.6c0-0.1,0-0.2,0-0.3c0-2.5,2-4.5,4.5-4.5c2.5,0,4.5,2,4.5,4.5c0,2.5-2,4.5-4.5,4.5
			c-1.1,0-2.1-0.4-2.9-1.1L16,18.4C16,18.5,16,18.6,16,18.7L16,18.7z M16,18.7"/>
	</g>
</g>
</svg>
