<svg id="Layer_1" data-name="Layer 1" xmlns="http://www.w3.org/2000/svg" viewBox="0 0 27.69 22.39"><defs><style>.cls-1{fill:#6e6f72;}</style></defs><title>Untitled-1</title><path class="cls-1" d="M13.51,13.25h-.67a.63.63,0,0,1-.64-.64.47.47,0,0,1,.14-.34,4.49,4.49,0,0,0,1-1.45.27.27,0,0,0,.16.06c.38,0,.82-.84.82-1.41s-.05-1-.43-1l-.14,0C13.69,6.92,13.3,5,10.94,5S8.19,6.92,8.17,8.46h-.1c-.38,0-.43.46-.43,1s.44,1.41.82,1.41a.24.24,0,0,0,.13,0,4.57,4.57,0,0,0,.95,1.42.48.48,0,0,1,.14.34.63.63,0,0,1-.63.64H8.37a2.61,2.61,0,0,0-2.61,2.61v.72a.82.82,0,0,0,.83.82h8.7a.82.82,0,0,0,.83-.82v-.72a2.61,2.61,0,0,0-2.61-2.61Zm0,0"/><path class="cls-1" d="M21.32,6.09H14a5.23,5.23,0,0,1,.42,1.75,1.05,1.05,0,0,1,.37.44h6.51a.61.61,0,0,0,.61-.61v-1a.61.61,0,0,0-.61-.61Zm0,0"/><path class="cls-1" d="M21.32,10.08H15a2.12,2.12,0,0,1-1.19,1.52l-.06.09v.58h7.6a.61.61,0,0,0,.61-.61v-1a.61.61,0,0,0-.61-.61Zm0,0"/><path class="cls-1" d="M21.32,14.06h-5a3.32,3.32,0,0,1,.52,1.79v.4h4.45a.61.61,0,0,0,.61-.61v-1a.61.61,0,0,0-.61-.61Zm0,0"/><path class="cls-1" d="M23.94,0H3.75A3.75,3.75,0,0,0,0,3.75V18.64a3.75,3.75,0,0,0,3.75,3.75H23.94a3.75,3.75,0,0,0,3.75-3.75V3.75A3.75,3.75,0,0,0,23.94,0Zm2,18.64a2,2,0,0,1-2,2H3.75a2,2,0,0,1-2-2V3.75a2,2,0,0,1,2-2H23.94a2,2,0,0,1,2,2Zm0,0"/></svg>