<?xml version="1.0" encoding="utf-8"?>
<!-- Generator: Adobe Illustrator 21.0.0, SVG Export Plug-In . SVG Version: 6.00 Build 0)  -->
<svg version="1.1" id="Layer_1" xmlns="http://www.w3.org/2000/svg" xmlns:xlink="http://www.w3.org/1999/xlink" x="0px" y="0px"
	 viewBox="0 0 35 27.7" style="enable-background:new 0 0 35 27.7;" xml:space="preserve">
<style type="text/css">
	.st0{fill:#A8ABAD;}
</style>
<g>
	<path class="st0" d="M22,13.4l-6.6-4.2C15.2,9,15,9,14.8,9.1c-0.2,0.1-0.3,0.3-0.3,0.5v8.4c0,0.2,0.1,0.4,0.3,0.5
		c0.1,0,0.2,0.1,0.3,0.1c0.1,0,0.2,0,0.3-0.1l6.6-4.2c0.2-0.1,0.3-0.3,0.3-0.5C22.3,13.7,22.2,13.5,22,13.4L22,13.4z M15.7,17v-6.2
		l4.9,3.1L15.7,17z M15.7,17"/>
	<path class="st0" d="M34.4,0H0.6C0.3,0,0,0.3,0,0.6v26.5c0,0.3,0.3,0.6,0.6,0.6h33.8c0.3,0,0.6-0.3,0.6-0.6V0.6
		C35,0.3,34.7,0,34.4,0L34.4,0z M6,13.3H1.2V7.8H6V13.3z M1.2,14.5H6v5.4H1.2V14.5z M7.2,20.5V1.2h20.5v25.3H7.2V20.5z M33.8,13.3
		H29V7.8h4.8V13.3z M29,14.5h4.8v5.4H29V14.5z M33.8,1.2v5.4H29V1.2H33.8z M1.2,1.2H6v5.4H1.2V1.2z M1.2,26.5v-5.4H6v5.4H1.2z
		 M33.8,26.5H29v-5.4h4.8V26.5z M33.8,26.5"/>
</g>
</svg>
