<svg id="Layer_1" data-name="Layer 1" xmlns="http://www.w3.org/2000/svg" viewBox="0 0 25 20"><defs><style>.cls-1{fill:#6e6f72;}</style></defs><title>Untitled-1</title><path class="cls-1" d="M24.39.61A2,2,0,0,0,22.91,0H2.08A2,2,0,0,0,.61.61,2,2,0,0,0,0,2.08V17.91a2,2,0,0,0,.61,1.47A2,2,0,0,0,2.08,20H22.91A2.09,2.09,0,0,0,25,17.91V2.08A2,2,0,0,0,24.39.61Zm-1.05,17.3a.42.42,0,0,1-.42.42H2.08a.42.42,0,0,1-.42-.42V10H23.33ZM23.33,5H1.67V2.08a.42.42,0,0,1,.42-.42H22.91a.42.42,0,0,1,.42.42Zm0,0"/><rect class="cls-1" x="3.33" y="15" width="3.33" height="1.67"/><rect class="cls-1" x="8.33" y="15" width="5" height="1.67"/></svg>