<?xml version="1.0" encoding="utf-8"?>
<!-- Generator: Adobe Illustrator 16.0.0, SVG Export Plug-In . SVG Version: 6.00 Build 0)  -->
<!DOCTYPE svg PUBLIC "-//W3C//DTD SVG 1.1//EN" "http://www.w3.org/Graphics/SVG/1.1/DTD/svg11.dtd">
<svg version="1.1" id="Layer_1" xmlns="http://www.w3.org/2000/svg" xmlns:xlink="http://www.w3.org/1999/xlink" x="0px" y="0px"
	 width="40px" height="40px" viewBox="0 0 40 40" enable-background="new 0 0 40 40" xml:space="preserve">
<path fill="#32BEA6" d="M40,20C40,8.956,31.044,0,20,0S0,8.956,0,20s8.956,20,20,20S40,31.044,40,20z"/>
<path fill="#3A3A38" d="M31.52,30.359c0,0.516-0.419,0.935-0.936,0.935H9.109c-0.516,0-0.936-0.419-0.936-0.935V15.002H31.52V30.359
	L31.52,30.359z"/>
<g>
	<path fill="#B0B0AF" d="M29.166,20.814h-18.92c-0.089,0-0.162-0.072-0.162-0.162c0-0.088,0.073-0.16,0.162-0.16h18.92
		c0.088,0,0.161,0.072,0.161,0.16C29.327,20.742,29.254,20.814,29.166,20.814z"/>
	<path fill="#B0B0AF" d="M29.166,22.459h-18.92c-0.089,0-0.162-0.072-0.162-0.162c0-0.088,0.073-0.16,0.162-0.16h18.92
		c0.088,0,0.161,0.072,0.161,0.16C29.327,22.387,29.254,22.459,29.166,22.459z"/>
	<path fill="#B0B0AF" d="M29.166,24.104h-18.92c-0.089,0-0.162-0.072-0.162-0.162c0-0.088,0.073-0.16,0.162-0.16h18.92
		c0.088,0,0.161,0.072,0.161,0.16C29.318,24.031,29.254,24.104,29.166,24.104z"/>
	<path fill="#B0B0AF" d="M29.166,26.925h-18.92c-0.089,0-0.162,0.072-0.162,0.161c0,0.088,0.073,0.161,0.162,0.161h5.667v2.241
		c0,0.088,0.072,0.161,0.161,0.161s0.161-0.073,0.161-0.161v-2.241h7.021v2.241c0,0.088,0.072,0.161,0.161,0.161
		s0.161-0.073,0.161-0.161v-2.241h5.595c0.088,0,0.161-0.073,0.161-0.161C29.335,26.997,29.254,26.925,29.166,26.925z"/>
</g>
<g>
	<polygon fill="#FFFFFF" points="14.591,18.154 12.326,18.154 14.72,15.002 16.985,15.002 	"/>
	<polygon fill="#FFFFFF" points="19.089,18.154 16.824,18.154 19.219,15.002 21.483,15.002 	"/>
	<polygon fill="#FFFFFF" points="23.515,18.154 21.25,18.154 23.644,15.002 25.909,15.002 	"/>
	<polygon fill="#FFFFFF" points="27.973,18.154 25.707,18.154 28.102,15.002 30.367,15.002 	"/>
</g>
<polygon fill="#3A3A38" points="12.229,11.027 9.98,11.294 12.736,14.123 14.986,13.85 "/>
<g>
	<polygon fill="#FFFFFF" points="10.012,11.294 8.439,11.479 10.52,14.389 12.761,14.123 	"/>
	<polygon fill="#FFFFFF" points="14.445,10.762 12.197,11.027 14.945,13.857 17.195,13.583 	"/>
</g>
<polygon fill="#3A3A38" points="16.662,10.496 14.414,10.762 17.162,13.592 19.412,13.317 "/>
<polygon fill="#FFFFFF" points="18.904,10.222 16.662,10.496 19.412,13.317 21.66,13.051 "/>
<polygon fill="#3A3A38" points="21.121,9.955 18.871,10.222 21.629,13.051 23.869,12.777 "/>
<polygon fill="#FFFFFF" points="23.305,9.689 21.057,9.964 23.805,12.785 26.055,12.52 "/>
<polygon fill="#3A3A38" points="25.514,9.424 23.273,9.697 26.021,12.52 28.271,12.253 "/>
<g>
	<polygon fill="#3A3A38" points="30.963,8.763 27.764,9.158 30.52,11.979 31.334,11.883 	"/>
	<polygon fill="#3A3A38" points="16.01,18.42 8.174,18.42 8.174,11.512 9.311,11.375 	"/>
</g>
<g>
	<circle fill="#B5B4A0" cx="9.271" cy="13.172" r="0.459"/>
	<circle fill="#B5B4A0" cx="9.271" cy="16.775" r="0.459"/>
	<circle fill="#B5B4A0" cx="12.882" cy="16.775" r="0.459"/>
</g>
</svg>
