<?xml version="1.0" encoding="utf-8"?>
<!-- Generator: Adobe Illustrator 21.0.0, SVG Export Plug-In . SVG Version: 6.00 Build 0)  -->
<svg version="1.1" id="Layer_1" xmlns="http://www.w3.org/2000/svg" xmlns:xlink="http://www.w3.org/1999/xlink" x="0px" y="0px"
	 viewBox="0 0 37 37" style="enable-background:new 0 0 37 37;" xml:space="preserve">
<style type="text/css">
	.st0{fill:#FFFFFF;stroke:#64297D;stroke-miterlimit:10;}
</style>
<g>
	<path class="st0" d="M13.4,18.5c0,0.1,0,0.2,0,0.3L25.8,25c1.1-0.9,2.4-1.5,3.9-1.5c3.4,0,6.1,2.7,6.1,6.1c0,3.4-2.7,6.1-6.1,6.1
		c-3.4,0-6.1-2.7-6.1-6.1c0-0.1,0-0.2,0-0.3l-12.4-6.2c-1.1,0.9-2.4,1.5-3.9,1.5c-3.4,0-6.1-2.7-6.1-6.1c0-3.4,2.7-6.1,6.1-6.1
		c1.5,0,2.8,0.6,3.9,1.5l12.4-6.2c0-0.1,0-0.2,0-0.4c0-3.4,2.7-6.1,6.1-6.1c3.4,0,6.1,2.7,6.1,6.1c0,3.4-2.7,6.1-6.1,6.1
		c-1.5,0-2.9-0.6-3.9-1.5l-12.4,6.2C13.4,18.3,13.4,18.4,13.4,18.5L13.4,18.5z M13.4,18.5"/>
</g>
</svg>
