<?xml version="1.0" encoding="utf-8"?>
<!-- Generator: Adobe Illustrator 21.0.0, SVG Export Plug-In . SVG Version: 6.00 Build 0)  -->
<svg version="1.1" id="Layer_1" xmlns="http://www.w3.org/2000/svg" xmlns:xlink="http://www.w3.org/1999/xlink" x="0px" y="0px"
	 viewBox="0 0 28.7 28.7" style="enable-background:new 0 0 28.7 28.7;" xml:space="preserve">
<style type="text/css">
	.st0{fill:#FFFFFF;}
	.st1{fill:#6E6F72;}
	.st2{fill:#64297D;}
</style>
<g>
	<path class="st2" d="M10.1,18.4c-0.6-0.6-1.2-1.2-1.7-1.8c-0.1-0.1-0.3-0.2-0.5-0.2c-0.2,0-0.4,0.1-0.5,0.3L0.1,27.8
		C-0.1,28,0,28.3,0.2,28.5c0.1,0.1,0.3,0.2,0.4,0.2c0.1,0,0.2,0,0.3-0.1l11.2-7.5c0.1-0.1,0.2-0.3,0.3-0.5c0-0.2-0.1-0.4-0.2-0.5
		C11.4,19.6,10.8,19,10.1,18.4L10.1,18.4z M10.1,18.4"/>
	<path class="st2" d="M28.3,6.7c-0.5-1.2-1.4-2.6-2.6-3.8C23.9,1.1,21.8,0,20.3,0c-0.6,0-1.1,0.2-1.5,0.5c-0.4,0.4-0.6,1-0.5,1.7
		c0,0.4-6.4,5.5-7,5.4C9.8,7.2,8.5,7.3,7.7,8.1C6,9.8,7.5,13.9,11,17.5c2.5,2.5,5.3,4,7.4,4c0.8,0,1.5-0.2,2-0.7
		c0.6-0.6,0.8-1.6,0.6-2.8c0,0,0-0.1,0-0.1c0-0.1,0-0.1,0-0.2c0-0.4,4.9-7.3,5.4-7.4c0.1,0,0.2,0,0.2,0c0.6,0,1.1-0.2,1.5-0.5
		C28.8,9.2,28.9,8.1,28.3,6.7L28.3,6.7z M28.3,6.7"/>
</g>
</svg>
