<?xml version="1.0" encoding="utf-8"?>
<!-- Generator: Adobe Illustrator 21.0.0, SVG Export Plug-In . SVG Version: 6.00 Build 0)  -->
<svg version="1.1" id="Layer_1" xmlns="http://www.w3.org/2000/svg" xmlns:xlink="http://www.w3.org/1999/xlink" x="0px" y="0px"
	 viewBox="0 0 1024 1024" style="enable-background:new 0 0 1024 1024;" xml:space="preserve">
<style type="text/css">
	.st0{fill:#FFFFFF;}
</style>
<title></title>
<g id="icomoon-ignore">
</g>
<path class="st0" d="M512,409.6c-84.8,0-153.6,68.8-153.6,153.6c0,84.8,68.8,153.6,153.6,153.6c84.8,0,153.6-68.8,153.6-153.6
	C665.6,478.4,596.8,409.6,512,409.6L512,409.6z M921.6,256H798.7c-16.9,0-35.1-13.1-40.4-29.1l-31.8-95.3
	c-5.4-16-23.5-29.1-40.4-29.1H337.9c-16.9,0-35.1,13.1-40.4,29.1l-31.8,95.3c-5.4,16-23.5,29.1-40.4,29.1H102.4
	C46.1,256,0,302.1,0,358.4v460.8c0,56.3,46.1,102.4,102.4,102.4h819.2c56.3,0,102.4-46.1,102.4-102.4V358.4
	C1024,302.1,977.9,256,921.6,256L921.6,256z M512,819.2c-141.4,0-256-114.6-256-256c0-141.4,114.6-256,256-256
	c141.4,0,256,114.6,256,256C768,704.6,653.4,819.2,512,819.2z M885.8,430c-19.8,0-35.8-16-35.8-35.8c0-19.8,16.1-35.8,35.8-35.8
	c19.8,0,35.8,16.1,35.8,35.8C921.6,414,905.6,430,885.8,430z"/>
</svg>
