<?xml version="1.0" encoding="utf-8"?>
<!-- Generator: Adobe Illustrator 21.0.0, SVG Export Plug-In . SVG Version: 6.00 Build 0)  -->
<svg version="1.1" id="Layer_1" xmlns="http://www.w3.org/2000/svg" xmlns:xlink="http://www.w3.org/1999/xlink" x="0px" y="0px"
	 viewBox="0 0 1024 1024" style="enable-background:new 0 0 1024 1024;" xml:space="preserve">
<style type="text/css">
	.st0{fill:#FFFFFF;}
</style>
<title></title>
<g id="icomoon-ignore">
</g>
<path class="st0" d="M170.7,64h682.7c35.3,0,65.5,12.5,90.5,37.5s37.5,55.2,37.5,90.5v682.7c0,35.3-12.5,65.5-37.5,90.5
	s-55.2,37.5-90.5,37.5H170.7c-35.3,0-65.5-12.5-90.5-37.5S42.7,910,42.7,874.7V192c0-35.3,12.5-65.5,37.5-90.5S135.3,64,170.7,64
	L170.7,64z M469.3,917.3V576H128v298.7c0,11.8,4.2,21.8,12.5,30.2s18.4,12.5,30.2,12.5L469.3,917.3L469.3,917.3z M469.3,490.7V149.3
	H170.7c-11.8,0-21.8,4.2-30.2,12.5S128,180.2,128,192v298.7L469.3,490.7L469.3,490.7z M896,874.7V576H554.7v341.3h298.7
	c11.8,0,21.8-4.2,30.2-12.5S896,886.4,896,874.7L896,874.7z M853.3,149.3H554.7v341.3H896V192c0-11.8-4.2-21.8-12.5-30.2
	S865.1,149.3,853.3,149.3L853.3,149.3z"/>
</svg>
