<?xml version="1.0" encoding="utf-8"?>
<!-- Generator: Adobe Illustrator 21.0.0, SVG Export Plug-In . SVG Version: 6.00 Build 0)  -->
<svg version="1.1" id="Layer_1" xmlns="http://www.w3.org/2000/svg" xmlns:xlink="http://www.w3.org/1999/xlink" x="0px" y="0px"
	 viewBox="0 0 32 32" style="enable-background:new 0 0 32 32;" xml:space="preserve">
<style type="text/css">
	.st0{fill:#FFFFFF;}
</style>
<path class="st0" d="M4.2,17.1c-0.2-1.6,0-3.2,0.4-4.6c1.4-4.8,5.8-8.3,11-8.4V0.9c0-0.2,0.2-0.3,0.4-0.2l6.4,4.7
	c0.1,0.1,0.1,0.2,0,0.3L16,10.6c-0.1,0.1-0.4,0-0.4-0.2V7.3C12.2,7.3,9.3,9.5,8,12.5c-0.5,1.1-0.7,2.4-0.7,3.7
	c0.1,1.8,0.8,3.5,1.8,4.8c0.6,0.7,0.4,1.8-0.3,2.3c-0.7,0.5-1.7,0.4-2.2-0.3C5.3,21.3,4.5,19.3,4.2,17.1L4.2,17.1z"/>
<path class="st0" d="M22.8,11.1c1.1,1.3,1.8,3,1.8,4.8c0.1,1.3-0.2,2.6-0.7,3.7c-1.3,3-4.2,5.1-7.6,5.2v-3.1c0-0.2-0.2-0.3-0.4-0.2
	l-6.4,4.7c-0.1,0.1-0.1,0.2,0,0.3l6.4,4.7c0.1,0.1,0.4,0,0.4-0.2v-3.1c5.2-0.1,9.6-3.6,11-8.4c0.4-1.4,0.6-3,0.4-4.6
	c-0.2-2.2-1.1-4.2-2.5-5.9c-0.5-0.7-1.5-0.8-2.2-0.3C22.4,9.3,22.2,10.3,22.8,11.1L22.8,11.1z"/>
</svg>
