<?xml version="1.0" encoding="utf-8"?>
<!-- Generator: Adobe Illustrator 16.0.0, SVG Export Plug-In . SVG Version: 6.00 Build 0)  -->
<!DOCTYPE svg PUBLIC "-//W3C//DTD SVG 1.1//EN" "http://www.w3.org/Graphics/SVG/1.1/DTD/svg11.dtd">
<svg version="1.1" id="Layer_1" xmlns="http://www.w3.org/2000/svg" xmlns:xlink="http://www.w3.org/1999/xlink" x="0px" y="0px"
	 width="40px" height="40px" viewBox="0 0 40 40" enable-background="new 0 0 40 40" xml:space="preserve">
<circle fill="#324A5E" cx="20" cy="20" r="20"/>
<path fill="#FFFFFF" d="M29.827,22.803H10.362c-0.693,0-1.26-0.566-1.26-1.26V9.008c0-0.692,0.566-1.26,1.26-1.26h19.465
	c0.692,0,1.26,0.567,1.26,1.26v12.504C31.087,22.236,30.52,22.803,29.827,22.803z"/>
<rect x="10.362" y="9.26" fill="#54C0EB" width="19.496" height="12.031"/>
<path fill="#E6E9EE" d="M32.819,32.252H7.181c-0.504,0-0.882-0.504-0.724-0.977l2.488-7.937c0.094-0.315,0.409-0.536,0.724-0.536
	h20.693c0.347,0,0.63,0.221,0.725,0.536l2.488,7.937C33.701,31.748,33.354,32.252,32.819,32.252z"/>
<g>
	<path fill="#ACB3BA" d="M31.843,28.252l-1.418-4.504c-0.063-0.252-0.283-0.409-0.535-0.409H10.079
		c-0.252,0-0.473,0.157-0.536,0.409l-1.417,4.504c-0.063,0.221,0.095,0.409,0.315,0.409h23.086
		C31.779,28.693,31.937,28.473,31.843,28.252z"/>
	<path fill="#ACB3BA" d="M22.771,31.307h-5.543c-0.095,0-0.189-0.094-0.157-0.22l0.346-1.512c0.032-0.063,0.095-0.126,0.158-0.126
		h4.85c0.095,0,0.158,0.063,0.158,0.126l0.346,1.512C22.961,31.213,22.897,31.307,22.771,31.307z"/>
</g>
</svg>
