<?xml version="1.0" encoding="utf-8"?>
<!-- Generator: Adobe Illustrator 16.0.0, SVG Export Plug-In . SVG Version: 6.00 Build 0)  -->
<!DOCTYPE svg PUBLIC "-//W3C//DTD SVG 1.1//EN" "http://www.w3.org/Graphics/SVG/1.1/DTD/svg11.dtd">
<svg version="1.1" id="Layer_1" xmlns="http://www.w3.org/2000/svg" xmlns:xlink="http://www.w3.org/1999/xlink" x="0px" y="0px"
	 width="40px" height="40px" viewBox="0 0 40 40" enable-background="new 0 0 40 40" xml:space="preserve">
<g>
	<circle fill="#84DBFF" cx="20" cy="20" r="20"/>
	<path fill="#324A5E" d="M20.548,32.968V5.556c0-0.175-0.246-0.31-0.548-0.31c-0.301,0-0.547,0.143-0.547,0.31v27.421h1.095V32.968z
		"/>
	<path fill="#FFFFFF" d="M20,6.254L20,6.254c-7.364,0-13.333,5.15-13.333,11.5l0,0h26.667l0,0C33.334,11.396,27.365,6.254,20,6.254z
		"/>
	<path fill="#FF7058" d="M20,6.254L20,6.254c-5.262,0-9.523,5.15-9.523,11.5l0,0h19.048l0,0C29.524,11.396,25.263,6.254,20,6.254z"
		/>
	<path fill="#FFFFFF" d="M20,6.254L20,6.254c-3.158,0-5.714,5.15-5.714,11.5l0,0h11.429l0,0C25.715,11.396,23.159,6.254,20,6.254z"
		/>
	<path fill="#FF7058" d="M20,6.254L20,6.254c-1.055,0-1.904,5.15-1.904,11.5l0,0h3.81l0,0C21.905,11.396,21.056,6.254,20,6.254z"/>
	<path fill="#E6E9EE" d="M33.334,17.746c0,0.722-0.85,1.302-1.905,1.302s-1.904-0.588-1.904-1.302"/>
	<path fill="#F1543F" d="M29.524,17.746c0,0.722-0.85,1.302-1.905,1.302c-1.055,0-1.904-0.588-1.904-1.302"/>
	<path fill="#E6E9EE" d="M25.715,17.746c0,0.722-0.85,1.302-1.905,1.302c-1.055,0-1.904-0.588-1.904-1.302"/>
	<path fill="#F1543F" d="M21.905,17.746c0,0.722-0.85,1.302-1.905,1.302c-1.055,0-1.904-0.588-1.904-1.302"/>
	<path fill="#E6E9EE" d="M18.096,17.746c0,0.722-0.85,1.302-1.904,1.302c-1.056,0-1.905-0.588-1.905-1.302"/>
	<path fill="#F1543F" d="M14.286,17.746c0,0.722-0.849,1.302-1.904,1.302s-1.905-0.588-1.905-1.302"/>
	<path fill="#E6E9EE" d="M10.477,17.746c0,0.722-0.849,1.302-1.904,1.302s-1.905-0.588-1.905-1.302"/>
	<path fill="#FFD05B" d="M20,40c6.484,0,12.255-3.096,15.905-7.881H4.096C7.746,36.904,13.517,40,20,40z"/>
</g>
</svg>
