<?xml version="1.0" encoding="utf-8"?>
<!-- Generator: Adobe Illustrator 16.0.0, SVG Export Plug-In . SVG Version: 6.00 Build 0)  -->
<!DOCTYPE svg PUBLIC "-//W3C//DTD SVG 1.1//EN" "http://www.w3.org/Graphics/SVG/1.1/DTD/svg11.dtd">
<svg version="1.1" id="Layer_1" xmlns="http://www.w3.org/2000/svg" xmlns:xlink="http://www.w3.org/1999/xlink" x="0px" y="0px"
	 width="40px" height="40px" viewBox="0 0 40 40" enable-background="new 0 0 40 40" xml:space="preserve">
<g>
	<circle fill="#FCB315" cx="20" cy="20" r="20"/>
	<g>
		<path fill="#5E5F5E" d="M10.05,20.113c-1.199,0-2.169,0.972-2.169,2.169v4.808c0,1.198,0.971,1.738,2.169,1.738
			c1.198,0,2.169-0.54,2.169-1.738v-4.808C12.219,21.085,11.248,20.113,10.05,20.113z"/>
		<path fill="#5E5F5E" d="M30.764,20.113c-1.198,0-2.169,0.972-2.169,2.169v4.808c0,1.198,0.971,1.738,2.169,1.738
			s2.169-0.54,2.169-1.738v-4.808C32.933,21.085,31.962,20.113,30.764,20.113z"/>
	</g>
	<path fill="#67B8CB" d="M32.481,14.801c-1.374-3.647-2.078-8.016-4.685-8.016c0,0-4.649-0.352-7.441-0.352
		c-2.631,0-7.448,0.352-7.448,0.352c-2.796,0-3.434,4.396-4.754,8.043c-1.999,0.864-3.639,3.248-3.399,5.167
		c0.313,2.501,0.569,7.738,4.142,7.738H31.81c3.573,0,4.015-6.331,4.132-7.738S34.513,15.65,32.481,14.801z"/>
	<path fill="#D0D1D1" d="M6.785,26.876c0.531,0.53,1.218,0.857,2.111,0.857H31.81c0.824,0,1.482-0.337,2.006-0.872
		c0.022-0.022-6.951-0.27-13.781-0.261C13.34,26.61,6.785,26.876,6.785,26.876z"/>
	<g>
		<path fill="#67B8CB" d="M32.481,14.801c-1.374-3.647-2.078-8.016-4.685-8.016c0,0-4.649-0.352-7.441-0.352
			c-2.631,0-7.448,0.352-7.448,0.352c-2.796,0-3.434,4.396-4.754,8.043c-1.999,0.864-3.868,3.291-3.399,5.167s31.071,1.407,31.188,0
			C36.059,18.588,34.513,15.65,32.481,14.801z"/>
		<path fill="#67B8CB" d="M32.481,14.801c-1.374-3.647-2.078-8.016-4.685-8.016c0,0-4.649-0.352-7.441-0.352
			c-2.631,0-7.448,0.352-7.448,0.352c-2.796,0-3.434,4.396-4.754,8.043C6.154,15.692,34.513,15.65,32.481,14.801z"/>
	</g>
	<path fill="#5EB1C0" d="M29.141,23.864c0,0.972-0.761,1.759-1.7,1.759H13.254c-0.939,0-1.7-0.787-1.7-1.759l0,0
		c0-0.971,0.761-1.758,1.7-1.758h14.188C28.38,22.106,29.141,22.894,29.141,23.864L29.141,23.864z"/>
	<path fill="#FFFFFF" d="M24.1,23.807c0,0.4-0.325,0.725-0.726,0.725H17.32c-0.401,0-0.726-0.324-0.726-0.725l0,0
		c0-0.401,0.325-0.726,0.726-0.726h6.054C23.775,23.081,24.1,23.405,24.1,23.807L24.1,23.807z"/>
	<path fill="#5EB1C0" d="M29.773,23.525c0,1.068,2.228,1.219,3.296,1.219c1.068,0,1.935-0.866,1.935-1.935s-0.866-1.485-1.935-1.485
		C32,21.324,29.773,22.458,29.773,23.525z"/>
	<path fill="#FFFFFF" d="M30.161,23.42c0,0.91,1.898,1.037,2.808,1.037s1.648-0.737,1.648-1.647s-0.738-1.173-1.648-1.173
		S30.161,22.51,30.161,23.42z"/>
	<path fill="#5EB1C0" d="M11.085,23.525c0,1.068-2.228,1.219-3.296,1.219s-1.935-0.866-1.935-1.935s0.866-1.485,1.935-1.485
		C8.857,21.324,11.085,22.458,11.085,23.525z"/>
	<path fill="#FFFFFF" d="M10.698,23.42c0,0.91-1.898,1.037-2.808,1.037S6.241,23.72,6.241,22.81s0.738-1.173,1.648-1.173
		S10.698,22.51,10.698,23.42z"/>
	<path opacity="0.8" fill="#B1D4D7" enable-background="new    " d="M13.887,7.461c0,0,4.182-0.287,6.466-0.287
		c2.424,0,6.459,0.287,6.459,0.287c2.297,0,2.939,3.515,4.121,6.498c0.567,1.428-21.76,1.424-21.214-0.008
		C10.857,10.969,11.433,7.461,13.887,7.461z"/>
	<path fill="#D3E0E1" d="M13.887,7.461c0,0,4.182-0.287,6.466-0.287c0.986,0,2.238,0.048,3.377,0.104L17.805,15
		c-4.476-0.095-8.315-0.444-8.086-1.049C10.857,10.969,11.433,7.461,13.887,7.461z"/>
</g>
</svg>
