<?xml version="1.0" ?><!DOCTYPE svg  PUBLIC '-//W3C//DTD SVG 1.1//EN'  'http://www.w3.org/Graphics/SVG/1.1/DTD/svg11.dtd'><svg height="2048px" style="shape-rendering:geometricPrecision; text-rendering:geometricPrecision; image-rendering:optimizeQuality; fill-rule:evenodd; clip-rule:evenodd" viewBox="0 0 2048 2048" width="2048px" xml:space="preserve" xmlns="http://www.w3.org/2000/svg" xmlns:xlink="http://www.w3.org/1999/xlink"><defs><style type="text/css">
   <![CDATA[
    .fil3 {fill:none}
    .fil1 {fill:#139A58}
    .fil2 {fill:#FFFFFE}
    .fil0 {fill:#212121;fill-rule:nonzero}
   ]]>
  </style></defs><g id="Layer_x0020_1"><path class="fil0" d="M975.793 305.391c0.209055,-0.00236221 0.425197,-0.00472441 0.530315,-0.0011811l-0.00472441 -0.046063 -0.525591 0.0472441z"/><path class="fil1" d="M1602.99 629.002c-27.3756,-54.6036 -62.6268,-105.149 -105.741,-151.608 -18.2445,-19.663 -37.5591,-38.0174 -57.9178,-55.0559 -20.4095,-17.0799 -41.928,-32.8914 -64.5343,-47.4248 -41.8831,-26.9244 -85.7575,-48.678 -131.648,-65.2028 -45.9178,-16.5331 -93.5942,-27.7524 -143.048,-33.5941 -4.29331,-0.507874 -8.70355,-0.826772 -13.1091,-1.14095 -7.0193,-0.50315 -14.0421,-1.0063 -20.4697,-2.53937l-3.6874 -0.438189 -83.5075 0 -10.5142 0 -0.908268 2.10945c-9.09331,0.849213 -18.1429,1.80473 -27.111,2.93858 -11.2087,1.41496 -22.2083,3.07559 -32.8855,5.10119 -79.4753,15.0602 -151.895,42.1441 -217.116,81.2646 -65.126,39.0614 -122.965,90.0379 -173.375,152.936 -41.4177,51.6721 -73.5697,107.128 -96.632,166.169 -23.2606,59.5489 -37.2815,122.684 -42.241,189.194 -2.39292,32.1213 -2.42717,64.1079 -0.101575,95.9221 2.31614,31.7103 7.00985,63.3461 14.0776,94.8674l0.0129921 -0.00354331c5.29252,23.6091 11.8606,46.7292 19.7327,69.2989 7.89449,22.637 17.0162,44.641 27.3874,65.9516l0.125197 0.124016 1.2248 2.44488c3.22796,6.44646 1.76221,3.67914 4.18111,8.42717l0.0248032 -0.0129921c17.2252,33.9118 36.9378,66.0119 59.3091,96.1891 22.4008,30.2197 47.4225,58.4563 75.2268,84.5953 14.7272,13.8425 29.863,26.9504 45.4678,39.215 15.7866,12.4075 32.1272,24.0473 49.0902,34.8154 52.0701,33.0496 106.602,58.2284 163.622,75.3213 54.4536,16.3228 111.21,25.2272 170.3,26.5276 -0.23504,49.4788 -0.204331,98.9835 -0.174803,148.487l0.0188977 38.0327c0.00708662,2.49567 0.0956694,4.09489 0.190158,5.86654l0.152362 2.8441 0.97441 22.7457 21.026 -8.62087 1.63465 -0.673229c1.63465,-0.651969 2.90906,-1.16221 3.75473,-1.56142l-0.011811 -0.0236221c61.0182,-28.6701 119.578,-61.1434 175.409,-97.8225 56.002,-36.7937 109.112,-77.6871 159.039,-123.075 9.80434,-8.91142 19.5992,-18.2386 29.3823,-27.9484 9.68505,-9.613 19.0618,-19.3181 28.1481,-29.1071 3.89292,-4.19292 7.20119,-7.79528 10.474,-11.3634 4.3689,-4.75985 8.73662,-9.51851 12.7323,-13.7965 8.10237,-8.66694 15.2752,-17.6894 22.4469,-26.7095 3.86457,-4.86142 7.73386,-9.72757 11.8075,-14.589 6.69331,-7.98662 13.1067,-16.3087 19.3618,-24.8126 5.84646,-7.95119 11.8429,-16.5095 17.8654,-25.187 12.9532,-18.6603 25.2626,-37.813 36.8197,-57.5327 11.6291,-19.8449 22.3725,-40.0288 32.1,-60.5989 4.81063,-10.1693 9.5941,-20.576 14.3303,-31.3902 4.32284,-9.86812 8.50631,-19.8862 12.4913,-30.1134 0.546851,-0.837402 1.08898,-1.84843 1.62165,-3.25512l-0.034252 -0.0129921c11.4165,-29.6918 20.765,-59.804 28.2095,-90.28 7.52008,-30.7878 13.1209,-61.7741 16.9736,-92.9198 1.34882,-10.8921 2.46496,-21.8563 3.38032,-32.8595 0.846851,-10.1858 1.55197,-21.2114 2.13543,-32.8961 1.19291,-23.876 1.02165,-47.6209 -0.522048,-71.1969 -1.54134,-23.5465 -4.46693,-47.1071 -8.7815,-70.6406 -11.4366,-62.3563 -30.8374,-120.828 -58.1894,-175.383z"/><path class="fil2" d="M978.494 766.388c0.00590552,-28.4551 0.00944883,-65.3422 -46.5414,-65.2867 -42.5587,0.0448819 -85.1186,0.0425197 -127.674,0.0413386 -30.5977,0 -61.1977,-0.00236221 -91.7953,0.0129921l0 -0.0625985c-18.9378,0 -30.8658,7.83071 -38.2359,19.8449 -6.32717,10.3134 -8.29016,23.0504 -8.29016,35.8453l0.0625985 0 -0.0732284 77.7733c-0.0484252,48.8717 -0.100394,97.7457 -0.115748,146.614 -0.00236221,13.852 4.88859,25.7374 13.3642,34.3583 8.49095,8.63623 20.3173,13.7197 34.1469,13.9488 3.41457,0.0578741 6.8941,0.046063 10.3689,0.0330709 1.65945,-0.00472441 3.32362,-0.0106299 4.98189,-0.00944883l31.9654 0.0602363 86.1072 0.165354c-0.861024,2.27126 -1.80945,4.4752 -2.85709,6.60709 -3.61772,7.36064 -8.52402,14.1496 -15.0827,20.2453 -5.24528,4.87087 -11.113,8.42481 -17.3941,11.165 -6.73938,2.93977 -14.1709,5.03859 -21.9272,6.81497 -9.90237,2.27244 -16.826,5.54646 -21.9236,10.9252 -5.89843,6.2256 -8.1626,13.5189 -8.17678,23.1957l-0.0708662 19.6205c-0.0791339,18.7264 -0.159449,37.4823 0.080315,56.1343 0.022441,1.85669 0.13937,3.47835 0.341339,4.86851l0 0.0625985c1.23189,8.39646 5.24174,15.2339 11.2299,20.0575 5.72835,4.60985 13.0169,7.08071 21.1229,6.98623l0.0625985 0c1.94646,-0.0236221 3.72992,-0.15 5.31733,-0.382677 51.893,-7.60867 97.8237,-31.8 130.46,-67.8898 31.467,-34.7965 50.4804,-80.5123 50.5229,-132.988 0.0448819,-59.6327 0.0366142,-119.264 0.0295276,-178.892l-0.00590552 -69.1158 0.0625985 0 0 -0.753544 -0.0625985 0z"/><path class="fil2" d="M1062.92 756.784l-0.0732284 77.7733c-0.0484252,48.8717 -0.100394,97.7457 -0.115748,146.614 -0.00472441,13.8508 4.88977,25.7374 13.363,34.3583 8.49331,8.63623 20.3185,13.7197 34.1481,13.9488 3.41457,0.0578741 6.8941,0.046063 10.3689,0.0330709 1.65945,-0.00472441 3.32362,-0.0106299 4.98189,-0.00944883l31.9654 0.0602363 86.1072 0.165354c-0.861024,2.27126 -1.80945,4.4752 -2.85709,6.60709 -3.61772,7.36064 -8.52402,14.1496 -15.0839,20.2453 -5.24528,4.87087 -11.113,8.42599 -17.3929,11.165 -6.74056,2.93977 -14.1709,5.03859 -21.9272,6.81497 -9.90237,2.27244 -16.8248,5.54528 -21.9236,10.9252 -5.89843,6.2256 -8.1626,13.5189 -8.17678,23.1957l-0.0708662 19.6205c-0.0791339,18.7264 -0.159449,37.4823 0.080315,56.1343 0.022441,1.85669 0.13937,3.47835 0.341339,4.86851l0 0.0625985c1.23189,8.39646 5.24174,15.2339 11.2299,20.0575 5.72835,4.61103 13.0181,7.08071 21.1229,6.98623l0.0625985 0c1.94646,-0.0236221 3.72992,-0.15 5.31733,-0.382677 51.893,-7.60867 97.8237,-31.8 130.46,-67.8898 31.467,-34.7965 50.4804,-80.5123 50.5229,-132.988 0.0448819,-59.3374 0.0366142,-118.674 0.0295276,-178.006l-0.00708662 -70.0016 0.0625985 0 0 -0.755906 -0.0625985 0c0.00590552,-28.4563 0.0106299,-65.3398 -46.5402,-65.2843 -42.5599,0.0448819 -85.1186,0.0425197 -127.675,0.0413386 -30.5965,0 -61.1965,-0.00236221 -91.7942,0.0129921l0 -0.0625985c-18.9378,0 -30.8658,7.83071 -38.2359,19.8449 -6.32717,10.3134 -8.29016,23.0504 -8.29016,35.8453l0.0625985 0z"/></g><rect class="fil3" height="2048" width="2048"/></svg>