<?xml version="1.0" encoding="utf-8"?>
<!-- Generator: Adobe Illustrator 16.0.0, SVG Export Plug-In . SVG Version: 6.00 Build 0)  -->
<!DOCTYPE svg PUBLIC "-//W3C//DTD SVG 1.1//EN" "http://www.w3.org/Graphics/SVG/1.1/DTD/svg11.dtd">
<svg version="1.1" id="Layer_1" xmlns="http://www.w3.org/2000/svg" xmlns:xlink="http://www.w3.org/1999/xlink" x="0px" y="0px"
	 width="40px" height="40.098px" viewBox="0 0 40 40.098" enable-background="new 0 0 40 40.098" xml:space="preserve">
<g>
	<path fill="#F0F0F0" d="M39.961,20.02c0,11.035-8.946,19.98-19.98,19.98C8.945,40,0,31.055,0,20.02s8.945-19.98,19.98-19.98
		C31.015,0.039,39.961,8.984,39.961,20.02L39.961,20.02z M39.961,20.02"/>
	<path fill="#0052B4" d="M0,20.02C0,31.055,8.945,40,19.98,40V20.02H0z M0,20.02"/>
	<path fill="#D80027" d="M19.98,0.039c11.035,0,19.98,8.945,19.98,19.98H19.98V0.039z M19.98,0.039"/>
	<path fill="#0052B4" d="M11.894,6.988l1.294,3.982h4.187l-3.387,2.461l1.294,3.981l-3.387-2.461l-3.387,2.461L9.8,13.432
		l-3.387-2.461H10.6L11.894,6.988z M11.894,6.988"/>
	<path fill="#D80027" d="M28.067,22.626l1.294,3.981h4.187l-3.387,2.461l1.293,3.982l-3.387-2.462l-3.387,2.462l1.294-3.982
		l-3.387-2.461h4.187L28.067,22.626z M28.067,22.626"/>
</g>
</svg>
