<?xml version="1.0" encoding="utf-8"?>
<!-- Generator: Adobe Illustrator 16.0.0, SVG Export Plug-In . SVG Version: 6.00 Build 0)  -->
<!DOCTYPE svg PUBLIC "-//W3C//DTD SVG 1.1//EN" "http://www.w3.org/Graphics/SVG/1.1/DTD/svg11.dtd">
<svg version="1.1" id="Layer_1" xmlns="http://www.w3.org/2000/svg" xmlns:xlink="http://www.w3.org/1999/xlink" x="0px" y="0px"
	 width="40px" height="40.108px" viewBox="0 0 40 40.108" enable-background="new 0 0 40 40.108" xml:space="preserve">
<g>
	<circle fill="#FD8469" cx="20" cy="20.055" r="20"/>
	
		<rect x="10.118" y="9.295" transform="matrix(0.9613 0.2754 -0.2754 0.9613 6.296 -4.7315)" fill="#E6E9EE" width="19.76" height="21.521"/>
	<rect x="10.119" y="9.293" fill="#FFFFFF" width="19.762" height="21.523"/>
	<g>
		<path fill="#324A5E" d="M16.277,14.863h-0.785l-1.422-2.166c-0.086-0.127-0.143-0.223-0.174-0.285h-0.008
			c0.016,0.119,0.016,0.309,0.016,0.555v1.896h-0.73V11.42h0.834l1.365,2.096c0.063,0.094,0.119,0.189,0.174,0.277h0.008
			c-0.016-0.08-0.016-0.238-0.016-0.477v-1.904h0.73v3.451H16.277L16.277,14.863z"/>
		<path fill="#324A5E" d="M19.135,14.863H17.07V11.42h1.984v0.635H17.84v0.77h1.127v0.627H17.84v0.785h1.295V14.863z"/>
		<path fill="#324A5E" d="M24.197,11.42l-0.912,3.443h-0.857l-0.57-2.213c-0.033-0.119-0.049-0.246-0.057-0.389h-0.008
			c-0.016,0.158-0.031,0.285-0.063,0.389l-0.588,2.213h-0.904l-0.906-3.443h0.85l0.484,2.293c0.023,0.096,0.039,0.23,0.047,0.396
			h0.018c0.008-0.127,0.031-0.262,0.07-0.404l0.627-2.285h0.834l0.563,2.316c0.025,0.088,0.041,0.207,0.057,0.373h0.008
			c0.008-0.127,0.023-0.254,0.047-0.381l0.477-2.301h0.785V11.42L24.197,11.42z"/>
		<path fill="#324A5E" d="M24.477,14.736v-0.77c0.143,0.119,0.293,0.207,0.451,0.262c0.168,0.057,0.326,0.088,0.492,0.088
			c0.096,0,0.184-0.008,0.254-0.023c0.072-0.016,0.135-0.041,0.184-0.072c0.047-0.031,0.086-0.07,0.109-0.111
			c0.025-0.039,0.041-0.086,0.041-0.135c0-0.063-0.016-0.127-0.057-0.182c-0.039-0.057-0.086-0.104-0.158-0.143
			c-0.063-0.049-0.143-0.088-0.238-0.127c-0.096-0.041-0.189-0.088-0.293-0.127c-0.27-0.111-0.469-0.246-0.604-0.414
			c-0.135-0.158-0.199-0.357-0.199-0.586c0-0.184,0.041-0.334,0.111-0.461c0.072-0.127,0.168-0.238,0.295-0.318
			c0.127-0.078,0.27-0.143,0.428-0.182c0.166-0.039,0.334-0.057,0.516-0.057c0.184,0,0.342,0.01,0.477,0.033s0.27,0.055,0.381,0.104
			v0.721c-0.055-0.039-0.119-0.07-0.189-0.102c-0.072-0.033-0.137-0.057-0.207-0.08c-0.072-0.023-0.143-0.031-0.215-0.049
			c-0.07-0.008-0.143-0.016-0.205-0.016c-0.088,0-0.168,0.008-0.238,0.025c-0.072,0.016-0.135,0.039-0.184,0.07
			c-0.047,0.031-0.088,0.064-0.119,0.111c-0.023,0.039-0.039,0.088-0.039,0.143c0,0.057,0.016,0.111,0.047,0.158
			c0.033,0.049,0.072,0.088,0.127,0.127c0.057,0.041,0.127,0.08,0.207,0.119c0.08,0.041,0.174,0.08,0.27,0.119
			c0.135,0.057,0.262,0.119,0.373,0.184c0.111,0.063,0.207,0.135,0.285,0.223c0.08,0.078,0.135,0.174,0.184,0.277
			c0.039,0.104,0.063,0.23,0.063,0.365c0,0.189-0.039,0.357-0.111,0.484c-0.07,0.127-0.174,0.238-0.293,0.316
			c-0.127,0.08-0.27,0.143-0.436,0.176c-0.168,0.031-0.342,0.055-0.525,0.055c-0.189,0-0.363-0.016-0.539-0.047
			C24.746,14.848,24.596,14.801,24.477,14.736z"/>
		<rect x="12.682" y="16.92" fill="#324A5E" width="14.635" height="0.889"/>
		<rect x="12.682" y="19.609" fill="#324A5E" width="14.635" height="0.889"/>
		<rect x="12.682" y="22.301" fill="#324A5E" width="7.795" height="0.889"/>
		<rect x="12.682" y="24.982" fill="#324A5E" width="7.795" height="0.889"/>
		<rect x="12.682" y="27.674" fill="#324A5E" width="7.795" height="0.889"/>
	</g>
	<rect x="21.762" y="22.301" fill="#FFD05B" width="5.555" height="6.27"/>
</g>
</svg>
