<?xml version="1.0" encoding="utf-8"?>
<!-- Generator: Adobe Illustrator 21.0.0, SVG Export Plug-In . SVG Version: 6.00 Build 0)  -->
<svg version="1.1" id="Layer_1" xmlns="http://www.w3.org/2000/svg" xmlns:xlink="http://www.w3.org/1999/xlink" x="0px" y="0px"
	 viewBox="0 0 1024 1024" style="enable-background:new 0 0 1024 1024;" xml:space="preserve">
<style type="text/css">
	.st0{fill:#FFFFFF;}
</style>
<title></title>
<g id="icomoon-ignore">
</g>
<path class="st0" d="M820.7,380.6c0.8-9.3,1.3-18.7,1.3-28.2c0-170.9-139.1-310-310-310s-310,139.1-310,310c0,9.5,0.5,18.9,1.3,28.2
	C84.8,424.2,0,538.2,0,671.7c0,170.9,139.1,310,310,310c77.1,0,147.7-28.3,202-75c54.3,46.7,124.9,75,202,75
	c170.9,0,310-139.1,310-310C1024,538.2,939.2,424.2,820.7,380.6L820.7,380.6z M244.8,352.3C244.8,205,364.7,85.2,512,85.2
	S779.2,205,779.2,352.3c0,5.4-0.2,10.8-0.5,16.1c-20.9-4.4-42.5-6.8-64.7-6.8c-77.1,0-147.7,28.3-202,75c-54.3-46.7-124.9-75-202-75
	c-22.2,0-43.8,2.4-64.7,6.8C245,363.1,244.8,357.8,244.8,352.3L244.8,352.3z M577.2,671.7c0,66.7-24.6,127.8-65.2,174.7
	c-40.6-46.9-65.2-108-65.2-174.7c0-5.4,0.2-10.8,0.5-16.1c20.9,4.4,42.5,6.8,64.7,6.8c22.2,0,43.8-2.4,64.7-6.8
	C577,660.9,577.2,666.2,577.2,671.7L577.2,671.7z M512,619.5c-20.2,0-39.8-2.3-58.7-6.5c9.8-43.7,30.3-83.3,58.7-116.1
	c28.3,32.7,48.9,72.4,58.7,116.1C551.8,617.3,532.2,619.5,512,619.5L512,619.5z M412.3,600.2c-80.5-32.5-141.6-103-161-189.2
	c18.9-4.2,38.5-6.5,58.7-6.5c65.2,0,125,23.5,171.4,62.4C448.4,504.4,424.2,550,412.3,600.2L412.3,600.2z M542.5,466.9
	C589,428,648.8,404.5,714,404.5c20.2,0,39.8,2.3,58.7,6.5c-19.4,86.2-80.5,156.8-161,189.2C599.8,550,575.6,504.4,542.5,466.9
	L542.5,466.9z M42.8,671.7c0-112.1,69.4-208.3,167.5-247.9c24.1,101.6,98.3,184.1,195,219.6c-0.8,9.3-1.3,18.7-1.3,28.2
	c0,78.4,29.3,150.1,77.5,204.8C435,915.4,375.2,938.8,310,938.8C162.7,938.8,42.8,819,42.8,671.7L42.8,671.7z M714,938.8
	c-65.2,0-125-23.5-171.4-62.4c48.2-54.7,77.5-126.3,77.5-204.8c0-9.5-0.5-18.9-1.3-28.2c96.7-35.6,170.9-118,195-219.6
	c98.1,39.6,167.5,135.8,167.5,247.9C981.2,819,861.3,938.8,714,938.8z"/>
</svg>
