<?xml version="1.0" encoding="utf-8"?>
<!-- Generator: Adobe Illustrator 21.0.0, SVG Export Plug-In . SVG Version: 6.00 Build 0)  -->
<svg version="1.1" id="Layer_1" xmlns="http://www.w3.org/2000/svg" xmlns:xlink="http://www.w3.org/1999/xlink" x="0px" y="0px"
	 viewBox="0 0 32 32" style="enable-background:new 0 0 32 32;" xml:space="preserve">
<style type="text/css">
	.st0{fill:#FFFFFF;}
</style>
<path class="st0" d="M29.4,8.3c-4.3-7.4-13.8-10-21.2-5.7c-7.4,4.3-10,13.8-5.7,21.2c4.3,7.4,13.8,10,21.2,5.7
	C31.2,25.1,33.7,15.7,29.4,8.3z M14.3,20.1c0,0.9-0.7,1.5-1.5,1.5s-1.5-0.7-1.5-1.5V12c0-0.9,0.7-1.5,1.5-1.5s1.5,0.7,1.5,1.5V20.1z
	 M21,20.1c0,0.9-0.7,1.5-1.5,1.5c-0.9,0-1.5-0.7-1.5-1.5V12c0-0.9,0.7-1.5,1.5-1.5c0.9,0,1.5,0.7,1.5,1.5V20.1z"/>
</svg>
