<?xml version="1.0" encoding="utf-8"?>
<!-- Generator: Adobe Illustrator 16.0.0, SVG Export Plug-In . SVG Version: 6.00 Build 0)  -->
<!DOCTYPE svg PUBLIC "-//W3C//DTD SVG 1.1//EN" "http://www.w3.org/Graphics/SVG/1.1/DTD/svg11.dtd">
<svg version="1.1" id="Layer_1" xmlns="http://www.w3.org/2000/svg" xmlns:xlink="http://www.w3.org/1999/xlink" x="0px" y="0px"
	 width="40.068px" height="40.799px" viewBox="0 0 40.068 40.799" enable-background="new 0 0 40.068 40.799" xml:space="preserve">
<g>
	<path fill="#E6E7E8" d="M39.069,20.334c0,10.678-8.655,19.332-19.332,19.332C9.056,39.666,0.4,31.012,0.4,20.334
		c0-10.68,8.656-19.336,19.337-19.336C30.414,0.998,39.069,9.654,39.069,20.334L39.069,20.334z M39.069,20.334"/>
	<g>
		<defs>
			<rect id="SVGID_1_" x="0.068" width="40" height="40.799"/>
		</defs>
		<clipPath id="SVGID_2_">
			<use xlink:href="#SVGID_1_"  overflow="visible"/>
		</clipPath>
		<path clip-path="url(#SVGID_2_)" fill="none" stroke="#ECF0F1" stroke-width="0.8" stroke-miterlimit="10" d="M39.069,20.334
			c0,10.678-8.655,19.332-19.332,19.332C9.056,39.666,0.4,31.012,0.4,20.334c0-10.68,8.656-19.336,19.337-19.336
			C30.414,0.998,39.069,9.654,39.069,20.334L39.069,20.334z M39.069,20.334"/>
	</g>
	<path fill="#38454F" d="M24.645,26.334h-8.933l-3.069-8.002L19.978,13l7.333,5.332L24.645,26.334z M24.645,26.334"/>
	<path fill="#38454F" d="M16.276,25.738c-0.328-0.166-0.733-0.033-0.895,0.295l-0.299,0.596c-0.164,0.334-0.03,0.732,0.299,0.896
		c0.094,0.049,0.195,0.07,0.296,0.07c0.244,0,0.482-0.137,0.599-0.371l0.297-0.596C16.738,26.301,16.605,25.9,16.276,25.738
		L16.276,25.738z M16.276,25.738"/>
	<path fill="#38454F" d="M15.082,28.121c-0.33-0.166-0.729-0.029-0.896,0.301l-0.295,0.596c-0.166,0.326-0.033,0.729,0.295,0.893
		c0.099,0.049,0.2,0.068,0.3,0.068c0.244,0,0.479-0.131,0.596-0.367l0.299-0.594C15.547,28.688,15.414,28.287,15.082,28.121
		L15.082,28.121z M15.082,28.121"/>
	<path fill="#38454F" d="M25.536,26.629l-0.295-0.596c-0.166-0.328-0.566-0.461-0.895-0.295c-0.329,0.162-0.462,0.563-0.299,0.891
		l0.299,0.6c0.117,0.234,0.352,0.367,0.596,0.367c0.101,0,0.205-0.021,0.299-0.07C25.57,27.361,25.703,26.963,25.536,26.629
		L25.536,26.629z M25.536,26.629"/>
	<path fill="#38454F" d="M26.432,28.422c-0.163-0.334-0.563-0.467-0.896-0.301c-0.328,0.166-0.461,0.566-0.295,0.896l0.295,0.594
		c0.118,0.236,0.356,0.373,0.6,0.373c0.101,0,0.202-0.025,0.296-0.074c0.329-0.162,0.462-0.566,0.3-0.893L26.432,28.422z
		 M26.432,28.422"/>
	<path fill="#38454F" d="M11.302,17.033L10.69,16.77c-0.338-0.143-0.729,0.014-0.876,0.352c-0.143,0.338,0.014,0.729,0.352,0.875
		l0.612,0.262c0.084,0.039,0.175,0.055,0.263,0.055c0.258,0,0.504-0.15,0.612-0.404C11.8,17.57,11.641,17.18,11.302,17.033
		L11.302,17.033z M11.302,17.033"/>
	<path fill="#38454F" d="M8.854,15.982l-0.615-0.262C7.9,15.574,7.51,15.73,7.367,16.07c-0.146,0.338,0.01,0.729,0.348,0.875
		l0.612,0.264c0.085,0.035,0.176,0.053,0.264,0.053c0.257,0,0.504-0.15,0.612-0.404C9.35,16.52,9.189,16.129,8.854,15.982
		L8.854,15.982z M8.854,15.982"/>
	<path fill="#38454F" d="M19.978,7.664c-0.368,0-0.667,0.301-0.667,0.668V9c0,0.367,0.299,0.666,0.667,0.666
		c0.368,0,0.667-0.299,0.667-0.666V8.332C20.645,7.965,20.345,7.664,19.978,7.664L19.978,7.664z M19.978,7.664"/>
	<path fill="#38454F" d="M19.978,10.334c-0.368,0-0.667,0.297-0.667,0.664v0.668c0,0.367,0.299,0.666,0.667,0.666
		c0.368,0,0.667-0.299,0.667-0.666v-0.668C20.645,10.631,20.345,10.334,19.978,10.334L19.978,10.334z M19.978,10.334"/>
	<path fill="#38454F" d="M29.264,16.77l-0.615,0.264c-0.335,0.146-0.495,0.537-0.348,0.875c0.107,0.254,0.355,0.404,0.612,0.404
		c0.088,0,0.179-0.016,0.264-0.055l0.612-0.262c0.338-0.146,0.495-0.537,0.352-0.875C29.994,16.783,29.603,16.627,29.264,16.77
		L29.264,16.77z M29.264,16.77"/>
	<path fill="#38454F" d="M32.591,16.07c-0.146-0.34-0.541-0.496-0.876-0.35L31.1,15.982c-0.335,0.146-0.495,0.537-0.348,0.875
		c0.107,0.254,0.355,0.404,0.612,0.404c0.088,0,0.179-0.018,0.264-0.057l0.612-0.26C32.578,16.799,32.734,16.408,32.591,16.07
		L32.591,16.07z M32.591,16.07"/>
	<path fill="#435159" d="M14.964,1.658l-1.664,2.393l6.677,4.281l5.999-4.586l-1.51-2.162c-1.478-0.371-3.021-0.572-4.609-0.582
		C18.164,1.012,16.527,1.242,14.964,1.658L14.964,1.658z M14.964,1.658"/>
	<path fill="#435159" d="M33.063,9l-1.087,7.334l6.673,4.049l0.4-0.766c-0.14-3.814-1.38-7.344-3.418-10.283L33.063,9z M33.063,9"/>
	<path fill="#435159" d="M33.844,33.543l0.134-3.207h-7.334l-3.197,7.068l2.764,1.146C29.15,37.506,31.758,35.77,33.844,33.543
		L33.844,33.543z M33.844,33.543"/>
	<path fill="#435159" d="M13.978,30.336H5.977l0.144,3.473c2.077,2.135,4.638,3.787,7.512,4.789l2.875-1.193L13.978,30.336z
		 M13.978,30.336"/>
	<path fill="#435159" d="M7.979,16.334L6.892,9L4.052,9.371c-1.947,2.822-3.161,6.184-3.373,9.816l0.625,1.195L7.979,16.334z
		 M7.979,16.334"/>
</g>
</svg>
