<?xml version="1.0" encoding="utf-8"?>
<!-- Generator: Adobe Illustrator 21.0.0, SVG Export Plug-In . SVG Version: 6.00 Build 0)  -->
<svg version="1.1" id="Layer_1" xmlns="http://www.w3.org/2000/svg" xmlns:xlink="http://www.w3.org/1999/xlink" x="0px" y="0px"
	 viewBox="0 0 39.6 37.3" style="enable-background:new 0 0 39.6 37.3;" xml:space="preserve">
<style type="text/css">
	.st0{fill:#A7A9AC;}
	.st1{fill:#FFFFFF;}
</style>
<g>
	<g>
		<path class="st0" d="M17,29c-1.7,0-3.2,1.4-3.2,3.2c0,1.7,1.4,3.2,3.2,3.2c1.7,0,3.2-1.4,3.2-3.2C20.2,30.4,18.7,29,17,29z
			 M17,33.5c-0.8,0-1.4-0.6-1.4-1.4c0-0.8,0.6-1.4,1.4-1.4c0.8,0,1.4,0.6,1.4,1.4C18.4,32.9,17.8,33.5,17,33.5z"/>
		<path class="st0" d="M28.1,29c-1.7,0-3.2,1.4-3.2,3.2c0,1.7,1.4,3.2,3.2,3.2s3.2-1.4,3.2-3.2C31.3,30.4,29.8,29,28.1,29z
			 M28.1,33.5c-0.8,0-1.4-0.6-1.4-1.4c0-0.8,0.6-1.4,1.4-1.4c0.8,0,1.4,0.6,1.4,1.4C29.5,32.9,28.9,33.5,28.1,33.5z"/>
		<path class="st0" d="M36,10.2c-0.7,3.5-1.5,7.1-2.2,10.6c-0.1,0.4-0.4,0.7-0.8,0.7H12.1c-0.4,0-0.8-0.3-0.8-0.7L9,9.5L8.6,7.7
			L8.1,5.5C8,4.6,7.4,3.9,6.6,3.6L3.2,2.1c-0.4-0.2-1,0-1.2,0.5C1.8,3,2,3.5,2.5,3.7l3.5,1.5c0.3,0.1,0.4,0.3,0.5,0.6l4,19.6
			c0.3,1.2,1.3,2.1,2.6,2.1h20.5c0.5,0,0.9-0.4,0.9-0.9s-0.4-0.9-0.9-0.9H13c-0.4,0-0.8-0.3-0.8-0.7L12,24.3c-0.1-0.5,0.3-1,0.8-1
			h20.8c0.8,0,1.6-0.6,1.7-1.4l2.3-11.3c0.1-0.5-0.3-1-0.8-1l0,0C36.4,9.5,36.1,9.8,36,10.2z"/>
	</g>
	<path class="st0" d="M21.3,18.1c0.2,0.2,0.6,0.4,0.9,0.4c0.3,0,0.6-0.1,0.9-0.4l4-4c0.5-0.5,0.5-1.3,0-1.7c-0.5-0.5-1.3-0.5-1.7,0
		l-1.9,1.9V7.1c0-0.7-0.5-1.2-1.2-1.2c-0.7,0-1.2,0.5-1.2,1.2v7.2l-1.9-1.9c-0.5-0.5-1.3-0.5-1.7,0c-0.5,0.5-0.5,1.3,0,1.7
		L21.3,18.1z M21.3,18.1"/>
</g>
</svg>
