<?xml version="1.0" encoding="utf-8"?>
<!-- Generator: Adobe Illustrator 21.0.0, SVG Export Plug-In . SVG Version: 6.00 Build 0)  -->
<svg version="1.1" id="Layer_1" xmlns="http://www.w3.org/2000/svg" xmlns:xlink="http://www.w3.org/1999/xlink" x="0px" y="0px"
	 viewBox="0 0 67.1 107.1" style="enable-background:new 0 0 67.1 107.1;" xml:space="preserve">
<style type="text/css">
	.st0{fill:#FBB042;}
</style>
<g>
	<path class="st0" d="M28.4,17.5c0,2.2-1.8,4-4,4s-4-1.8-4-4c0-2.2,1.8-4,4-4S28.4,15.3,28.4,17.5L28.4,17.5z M28.4,17.5"/>
	<g>
		<path class="st0" d="M64.5,59.6c-1.2-0.9-13.7-14.9-17.1-16.8V6.6c0-3.7-3-6.6-6.6-6.6H6.6C3,0,0,3,0,6.6v63.2
			c0,3.7,3,6.6,6.6,6.6h14.9l-0.6-5.2c-0.2-0.2-0.3-0.3-0.5-0.5h-6.6C14,70,14.1,69,13.9,68c-0.5-2.7-2.6-4.9-5.4-5.4
			c-1-0.2-2-0.1-2.9,0.1V13.4c0.4,0.1,0.8,0.1,1.2,0.1c3.7,0,6.7-3,6.7-6.7c0-0.4,0-0.8-0.1-1.2h20.4c-0.1,0.4-0.1,0.8-0.1,1.2
			c0,3.7,3,6.7,6.7,6.7c0.4,0,0.8,0,1.2-0.1v61.9c-2.3-1.7-4.9-7-4.9-7s-1.3-14.2-8.5-14.2c-0.2,0-0.4,0-0.6,0c0,0-5.4,0.5-0.9,16
			l2,17.3c0,0,2.3,9.4,8.5,15.9v1.9c0,1,0.8,1.9,1.9,1.9h20.2c1,0,1.7-0.7,1.9-1.7c0.7-6.7,3.5-31.8,5.2-35.6
			c0.3-0.6,0.5-1.2,0.6-1.9C67.3,65.8,67.4,61.9,64.5,59.6L64.5,59.6z M64.5,59.6"/>
		<path class="st0" d="M9.2,38.7c0,6.9,4.9,12.7,11.3,14.2c0.2-0.4,0.4-0.7,0.6-1c2.1-3.1,5-3.7,6-3.8c0.4,0,0.8-0.1,1.2-0.1
			c1.4,0,3.3,0.3,5.3,1.3c2.8-2.6,4.6-6.4,4.6-10.6c0-8-6.5-14.5-14.5-14.5C15.6,24.2,9.2,30.7,9.2,38.7L9.2,38.7z M15,37.4"/>
		<g>
			<path class="st0" d="M23.1,32.7L23.1,32.7l-2.7,1.3l-0.5-2.4l3.7-1.7h2.7v13.9h-3.1V32.7z"/>
		</g>
	</g>
</g>
</svg>
