<?xml version="1.0" encoding="utf-8"?>
<!-- Generator: Adobe Illustrator 21.0.0, SVG Export Plug-In . SVG Version: 6.00 Build 0)  -->
<svg version="1.1" id="Layer_1" xmlns="http://www.w3.org/2000/svg" xmlns:xlink="http://www.w3.org/1999/xlink" x="0px" y="0px"
	 viewBox="0 0 34.6 38.2" style="enable-background:new 0 0 34.6 38.2;" xml:space="preserve">
<style type="text/css">
	.st0{fill:#A8ABAD;}
</style>
<g>
	<path class="st0" d="M19.7,18.1c0.1,0.2,0.3,0.3,0.5,0.3c0.1,0,0.2,0,0.3-0.1c0,0,3.4-1.9,5.1-2.5c0.3-0.1,0.5-0.5,0.4-0.8
		c-0.1-0.3-0.4-0.5-0.7-0.4c-1.8,0.6-5.1,2.5-5.3,2.6C19.6,17.4,19.5,17.8,19.7,18.1L19.7,18.1z M19.7,18.1"/>
	<path class="st0" d="M20.2,10.8c0.1,0,0.2,0,0.3-0.1c0,0,3.4-1.9,5.1-2.5c0.3-0.1,0.5-0.5,0.4-0.8c-0.1-0.3-0.4-0.5-0.7-0.4
		c-1.8,0.6-5.1,2.5-5.3,2.6c-0.3,0.2-0.4,0.5-0.3,0.9C19.8,10.7,20,10.8,20.2,10.8L20.2,10.8z M20.2,10.8"/>
	<path class="st0" d="M34,9.6c-0.3,0-0.6,0.3-0.6,0.6V35c0,1.1-0.8,1.9-1.7,1.9H17.9v-1.5c0.8-0.3,3-1.1,5.2-1.1
		c5,0,8.4,1.2,8.5,1.2c0.2,0.1,0.4,0,0.5-0.1c0.2-0.1,0.2-0.3,0.2-0.5V7c0-0.3-0.2-0.6-0.5-0.6c0,0-0.5-0.1-1.2-0.3
		c-0.3-0.1-0.6,0.2-0.7,0.5c-0.1,0.3,0.1,0.7,0.5,0.7c0.3,0.1,0.5,0.1,0.7,0.2v26.7c-1.3-0.4-4.2-1.1-8.1-1.1c-2.5,0-5,0.9-5.7,1.2
		c-0.7-0.3-2.7-1.2-5.2-1.2c-4,0-7.2,0.7-8.7,1.1V7.5C4.6,7.2,8,6.4,12.1,6.4c2.1,0,3.9,0.7,4.6,1v25.1c0,0.2,0.1,0.4,0.3,0.6
		c0.2,0.1,0.4,0.1,0.6,0c0.1,0,5.8-3.8,10.8-5.7c0.2-0.1,0.4-0.3,0.4-0.6V0.6c0-0.2-0.1-0.4-0.2-0.5C28.4,0,28.2,0,28.1,0
		c-4.6,1.9-9.3,5.1-9.3,5.2c-0.3,0.2-0.4,0.6-0.2,0.9c0.2,0.3,0.5,0.4,0.8,0.2c0,0,4.1-2.8,8.3-4.7v24.7c-3.9,1.5-8,4-9.8,5.1V7
		c0-0.2-0.1-0.5-0.3-0.6c-0.1-0.1-2.5-1.3-5.4-1.3c-5.2,0-9.2,1.2-9.4,1.3C2.5,6.5,2.3,6.7,2.3,7v28c0,0.2,0.1,0.4,0.2,0.5
		c0.1,0.1,0.2,0.1,0.3,0.1c0.1,0,0.1,0,0.2,0c0,0,4-1.2,9.1-1.2c2.1,0,3.9,0.7,4.6,1.1v1.5H2.9c-1,0-1.7-0.9-1.7-1.9V10.2
		c0-0.4-0.3-0.6-0.6-0.6C0.3,9.6,0,9.8,0,10.2V35c0,1.8,1.3,3.2,2.9,3.2h28.8c1.6,0,2.9-1.4,2.9-3.2V10.2C34.6,9.8,34.3,9.6,34,9.6
		L34,9.6z M34,9.6"/>
	<path class="st0" d="M19.7,14.3c0.1,0.2,0.3,0.3,0.5,0.3c0.1,0,0.2,0,0.3-0.1c0,0,3.4-1.9,5.1-2.5c0.3-0.1,0.5-0.5,0.4-0.8
		c-0.1-0.3-0.4-0.5-0.7-0.4c-1.8,0.6-5.1,2.5-5.3,2.6C19.6,13.6,19.5,14,19.7,14.3L19.7,14.3z M19.7,14.3"/>
	<path class="st0" d="M19.7,21.9c0.1,0.2,0.3,0.3,0.5,0.3c0.1,0,0.2,0,0.3-0.1c0,0,3.4-1.9,5.1-2.5c0.3-0.1,0.5-0.5,0.4-0.8
		c-0.1-0.3-0.4-0.5-0.7-0.4c-1.8,0.6-5.1,2.5-5.3,2.6C19.6,21.2,19.5,21.6,19.7,21.9L19.7,21.9z M19.7,21.9"/>
	<path class="st0" d="M14,11.8c-3.6-0.9-7.6,0.3-7.8,0.3c-0.3,0.1-0.5,0.4-0.4,0.8c0.1,0.3,0.3,0.5,0.6,0.5c0,0,0.1,0,0.2,0
		c0,0,3.9-1.1,7.2-0.3c0.3,0.1,0.6-0.1,0.7-0.5C14.5,12.2,14.3,11.9,14,11.8L14,11.8z M14,11.8"/>
	<path class="st0" d="M14,15.6c-3.6-0.9-7.6,0.3-7.8,0.3c-0.3,0.1-0.5,0.4-0.4,0.8c0.1,0.3,0.3,0.5,0.6,0.5c0,0,0.1,0,0.2,0
		c0,0,3.9-1.1,7.2-0.3c0.3,0.1,0.6-0.1,0.7-0.5C14.5,16.1,14.3,15.7,14,15.6L14,15.6z M14,15.6"/>
	<path class="st0" d="M19.7,25.8c0.1,0.2,0.3,0.3,0.5,0.3c0.1,0,0.2,0,0.3-0.1c0,0,3.4-1.9,5.1-2.5c0.3-0.1,0.5-0.5,0.4-0.8
		c-0.1-0.3-0.4-0.5-0.7-0.4c-1.8,0.6-5.1,2.5-5.3,2.6C19.6,25.1,19.5,25.5,19.7,25.8L19.7,25.8z M19.7,25.8"/>
	<path class="st0" d="M14,19.5c-3.6-0.9-7.6,0.3-7.8,0.3c-0.3,0.1-0.5,0.4-0.4,0.8C5.9,20.8,6.1,21,6.3,21c0,0,0.1,0,0.2,0
		c0,0,3.9-1.1,7.2-0.3c0.3,0.1,0.6-0.1,0.7-0.5C14.5,19.9,14.3,19.5,14,19.5L14,19.5z M14,19.5"/>
	<path class="st0" d="M14,27.1c-3.6-0.9-7.6,0.3-7.8,0.3c-0.3,0.1-0.5,0.4-0.4,0.8c0.1,0.3,0.3,0.5,0.6,0.5c0,0,0.1,0,0.2,0
		c0,0,3.9-1.1,7.2-0.3c0.3,0.1,0.6-0.1,0.7-0.5C14.5,27.5,14.3,27.2,14,27.1L14,27.1z M14,27.1"/>
	<path class="st0" d="M14,23.3c-3.6-0.9-7.6,0.3-7.8,0.3c-0.3,0.1-0.5,0.4-0.4,0.8c0.1,0.3,0.3,0.5,0.6,0.5c0,0,0.1,0,0.2,0
		c0,0,3.9-1.1,7.2-0.3c0.3,0.1,0.6-0.1,0.7-0.5C14.5,23.7,14.3,23.4,14,23.3L14,23.3z M14,23.3"/>
</g>
</svg>
