<?xml version="1.0" encoding="utf-8"?>
<!-- Generator: Adobe Illustrator 21.0.0, SVG Export Plug-In . SVG Version: 6.00 Build 0)  -->
<svg version="1.1" id="Layer_1" xmlns="http://www.w3.org/2000/svg" xmlns:xlink="http://www.w3.org/1999/xlink" x="0px" y="0px"
	 viewBox="0 0 30.4 28.3" style="enable-background:new 0 0 30.4 28.3;" xml:space="preserve">
<style type="text/css">
	.st0{fill:#A8ABAD;}
</style>
<g>
	<path class="st0" d="M16.1,12.1c-0.3,0.3-0.3,0.9,0,1.2c1.4,1.4,1.4,3.6,0,5l-7.2,7.2c-1.4,1.4-3.6,1.4-5,0l-1.1-1.1
		c-1.4-1.4-1.4-3.6,0-5l7.2-7.2c0.3-0.3,0.3-0.9,0-1.2c-0.3-0.3-0.9-0.3-1.2,0l-7.2,7.2c-1,1-1.5,2.3-1.5,3.7c0,1.4,0.5,2.7,1.5,3.7
		l1.1,1.1c1,1,2.4,1.5,3.7,1.5c1.3,0,2.7-0.5,3.7-1.5l7.2-7.2c2-2,2-5.4,0-7.4C16.9,11.8,16.4,11.8,16.1,12.1L16.1,12.1z M16.1,12.1
		"/>
	<path class="st0" d="M28.9,2.6l-1.1-1.1c-2-2-5.4-2-7.4,0l-7.2,7.2c-2,2-2,5.4,0,7.4c0.3,0.3,0.9,0.3,1.2,0c0.3-0.3,0.3-0.9,0-1.2
		c-1.4-1.4-1.4-3.6,0-5l7.2-7.2c1.4-1.4,3.6-1.4,5,0l1.1,1.1c1.4,1.4,1.4,3.6,0,5l-7.2,7.2c-0.3,0.3-0.3,0.9,0,1.2
		c0.2,0.2,0.4,0.3,0.6,0.3c0.2,0,0.4-0.1,0.6-0.3l7.2-7.2c1-1,1.5-2.3,1.5-3.7C30.4,4.9,29.8,3.6,28.9,2.6L28.9,2.6z M28.9,2.6"/>
</g>
</svg>
