<?xml version="1.0" encoding="utf-8"?>
<!-- Generator: Adobe Illustrator 21.0.0, SVG Export Plug-In . SVG Version: 6.00 Build 0)  -->
<svg version="1.1" id="Layer_1" xmlns="http://www.w3.org/2000/svg" xmlns:xlink="http://www.w3.org/1999/xlink" x="0px" y="0px"
	 viewBox="0 0 43.4 32.5" style="enable-background:new 0 0 43.4 32.5;" xml:space="preserve">
<style type="text/css">
	.st0{fill:#6E6F72;}
	.st1{fill:#BCBEC0;}
	.st2{clip-path:url(#SVGID_2_);fill-rule:evenodd;clip-rule:evenodd;fill:#6E6F72;}
</style>
<g>
	<defs>
		<path id="SVGID_1_" d="M38,31.2H5.3c-2.7,0-5-2.2-5-5V5.4c0-2.8,2.2-5,5-5H38c2.8,0,5,2.2,5,5v20.8C43,28.9,40.8,31.2,38,31.2z"/>
	</defs>
	<clipPath id="SVGID_2_">
		<use xlink:href="#SVGID_1_"  style="overflow:visible;"/>
	</clipPath>
	<path class="st2" d="M43.4,21.6c0,1.1-0.7,1.6-1.9,1.6h-2.3v-1.1h2.3c0.2,0,0.4,0,0.5-0.1c0.1-0.1,0.2-0.2,0.2-0.3
		c0-0.2-0.1-0.3-0.2-0.4c-0.1-0.1-0.2-0.1-0.4-0.1c-1.1,0-2.5,0-2.5-1.6c0-0.7,0.5-1.5,1.7-1.5h2.4v1.1h-2.2c-0.2,0-0.4,0-0.5,0.1
		c-0.1,0.1-0.2,0.2-0.2,0.4c0,0.2,0.1,0.3,0.2,0.4c0.2,0,0.3,0.1,0.5,0.1h0.7c0.7,0,1.1,0.2,1.4,0.4C43.2,20.7,43.4,21.1,43.4,21.6
		 M38.3,20.5c-0.3-0.2-0.7-0.4-1.4-0.4h-0.7c-0.2,0-0.3,0-0.5-0.1c-0.1-0.1-0.2-0.2-0.2-0.4c0-0.2,0-0.3,0.2-0.4
		c0.1-0.1,0.2-0.1,0.5-0.1h2.2v-1.1h-2.4c-1.3,0-1.7,0.8-1.7,1.5c0,1.6,1.4,1.5,2.5,1.6c0.2,0,0.4,0,0.4,0.1
		c0.1,0.1,0.2,0.2,0.2,0.4c0,0.1-0.1,0.2-0.2,0.3c-0.1,0.1-0.2,0.1-0.5,0.1h-2.3v1.1h2.3c1.2,0,1.9-0.5,1.9-1.6
		C38.6,21.1,38.5,20.7,38.3,20.5 M33.6,22.1h-2.8v-1h2.8v-1h-2.8v-0.9h2.8v-1.1h-4v5.1h4V22.1z M28.3,18.3c-0.4-0.2-0.9-0.2-1.5-0.2
		H24v5.1h1.2v-1.8h1.3c0.4,0,0.7,0,0.9,0.2c0.2,0.2,0.2,0.7,0.2,1v0.6h1.2v-1c0-0.5,0-0.7-0.2-0.9c-0.1-0.2-0.3-0.3-0.6-0.4
		c0.3-0.1,0.9-0.5,0.9-1.3C28.9,18.9,28.7,18.6,28.3,18.3 M21.4,18.1h-3.9L16,19.8l-1.5-1.7H9.7v5.1h4.8l1.5-1.7l1.5,1.7h2.3v-1.7
		h1.5c1,0,2.1-0.3,2.1-1.7C23.5,18.4,22.4,18.1,21.4,18.1 M27.3,20.2c-0.2,0.1-0.4,0.1-0.6,0.1l-1.5,0v-1.2h1.5c0.2,0,0.4,0,0.6,0.1
		c0.2,0.1,0.2,0.2,0.2,0.4C27.6,19.9,27.5,20.1,27.3,20.2 M21.4,20.4h-1.6v-1.3h1.6c0.4,0,0.7,0.2,0.7,0.6
		C22.2,20.2,21.9,20.4,21.4,20.4 M16.8,20.6l1.9-2v4.1L16.8,20.6z M13.8,22.1h-3v-1h2.7v-1h-2.7v-0.9h3l1.3,1.5L13.8,22.1z M40,14.4
		h-1.7L36,10.6v3.8h-2.4l-0.5-1.1h-2.5l-0.5,1.1h-1.4c-0.6,0-1.3-0.1-1.8-0.6c-0.4-0.4-0.6-1-0.6-1.9c0-0.8,0.1-1.4,0.7-2
		c0.4-0.4,1-0.6,1.8-0.6h1.1v1.1h-1.1c-0.4,0-0.7,0.1-0.9,0.3c-0.2,0.2-0.3,0.6-0.3,1.2c0,0.5,0.1,0.9,0.3,1.2
		c0.2,0.2,0.5,0.2,0.8,0.2h0.5l1.7-4h1.8l2,4.8V9.4h1.9l2.1,3.5V9.4H40V14.4z M25.7,9.4h-1.2v5.1h1.2V9.4z M23.1,9.6
		c-0.4-0.2-0.8-0.2-1.5-0.2h-2.8v5.1h1.2v-1.8h1.3c0.4,0,0.7,0,0.9,0.2c0.2,0.3,0.2,0.7,0.2,1v0.6h1.2v-1c0-0.4,0-0.7-0.2-0.9
		c-0.1-0.2-0.3-0.3-0.6-0.4c0.3-0.2,0.9-0.5,0.9-1.3C23.7,10.2,23.5,9.8,23.1,9.6 M18,13.4h-2.8v-1H18v-1h-2.8v-0.9H18V9.4H14v5.1
		H18V13.4z M13.1,9.4h-2l-1.5,3.4L8,9.4H6.1v4.8L4,9.4H2.2L0,14.4h1.3l0.5-1.1h2.5l0.5,1.1h2.5v-4l1.8,4h1l1.8-4v4h1.2V9.4z
		 M32.6,12.2l-0.8-2l-0.8,2H32.6z M22.2,11.4c-0.2,0.1-0.4,0.1-0.6,0.1h-1.5v-1.1h1.5c0.2,0,0.5,0,0.6,0.1c0.2,0.1,0.2,0.2,0.2,0.5
		C22.4,11.2,22.3,11.4,22.2,11.4 M2.2,12.2l0.8-2l0.8,2H2.2z M43,0H0v11.7l1.5-3.4h3.1L5,9.2V8.4h3.7l0.8,1.8l0.8-1.8h11.7
		c0.5,0,1,0.1,1.4,0.4V8.4h3.2v0.4c0.5-0.3,1.2-0.4,2-0.4h4.7l0.4,0.8V8.4h3.4l0.5,0.8V8.4h3.4v7.1h-3.4L37,14.4v1.1h-4.2l-0.5-1.2
		h-1l-0.5,1.2h-2.2c-0.9,0-1.5-0.2-1.9-0.4v0.4h-5.2v-1.6c0-0.2,0-0.3-0.2-0.3h-0.2v1.9H11v-0.9l-0.4,0.9H8.5l-0.4-0.9v0.9H4
		l-0.4-1.2h-1l-0.5,1.2H0v17h43v-8.6c-0.5,0.2-1.1,0.3-1.8,0.3h-3.1v-0.4c-0.4,0.3-1,0.4-1.6,0.4h-9.9v-1.6c0-0.2,0-0.2-0.2-0.2
		h-0.2v1.8H23v-1.9c-0.5,0.3-1.1,0.3-1.7,0.3h-0.4v1.7h-4L16,23.1l-1,1.1H8.6v-7.1h6.5l0.9,1.1l1-1.1h4.4c0.5,0,1.3,0.1,1.7,0.4
		v-0.4H27c0.4,0,1.1,0.1,1.7,0.4v-0.4h5.9v0.4c0.3-0.3,0.9-0.4,1.5-0.4h3.3v0.4c0.4-0.2,0.9-0.4,1.5-0.4H43V0z"/>
</g>
</svg>
