<?xml version="1.0" encoding="utf-8"?>
<!-- Generator: Adobe Illustrator 21.0.0, SVG Export Plug-In . SVG Version: 6.00 Build 0)  -->
<svg version="1.1" id="Layer_1" xmlns="http://www.w3.org/2000/svg" xmlns:xlink="http://www.w3.org/1999/xlink" x="0px" y="0px"
	 viewBox="0 0 34.8 35.6" style="enable-background:new 0 0 34.8 35.6;" xml:space="preserve">
<style type="text/css">
	.st0{fill:#FFFFFF;}
	.st1{fill:#6E6F72;}
	.st2{fill:#64297D;}
</style>
<g>
	<path class="st2" d="M12.6,19.6c0-0.4-0.4-0.8-0.8-0.8H8.9c-0.4,0-0.8,0.4-0.8,0.8v2.8c0,0.4,0.4,0.8,0.8,0.8h2.8
		c0.4,0,0.8-0.4,0.8-0.8V19.6z M12.6,19.6"/>
	<path class="st2" d="M19.6,19.6c0-0.4-0.4-0.8-0.8-0.8H16c-0.4,0-0.8,0.4-0.8,0.8v2.8c0,0.4,0.4,0.8,0.8,0.8h2.8
		c0.4,0,0.8-0.4,0.8-0.8V19.6z M19.6,19.6"/>
	<path class="st2" d="M26.6,19.6c0-0.4-0.4-0.8-0.8-0.8H23c-0.4,0-0.8,0.4-0.8,0.8v2.8c0,0.4,0.4,0.8,0.8,0.8h2.8
		c0.4,0,0.8-0.4,0.8-0.8V19.6z M26.6,19.6"/>
	<path class="st2" d="M12.6,26.7c0-0.4-0.4-0.8-0.8-0.8H8.9c-0.4,0-0.8,0.4-0.8,0.8v2.8c0,0.4,0.4,0.8,0.8,0.8h2.8
		c0.4,0,0.8-0.4,0.8-0.8V26.7z M12.6,26.7"/>
	<path class="st2" d="M19.6,26.7c0-0.4-0.4-0.8-0.8-0.8H16c-0.4,0-0.8,0.4-0.8,0.8v2.8c0,0.4,0.4,0.8,0.8,0.8h2.8
		c0.4,0,0.8-0.4,0.8-0.8V26.7z M19.6,26.7"/>
	<path class="st2" d="M26.6,26.7c0-0.4-0.4-0.8-0.8-0.8H23c-0.4,0-0.8,0.4-0.8,0.8v2.8c0,0.4,0.4,0.8,0.8,0.8h2.8
		c0.4,0,0.8-0.4,0.8-0.8V26.7z M26.6,26.7"/>
	<path class="st2" d="M31.7,4v4.3c0,1.9-1.6,3.5-3.5,3.5h-2.2c-1.9,0-3.5-1.6-3.5-3.5V3.9h-10v4.3c0,1.9-1.6,3.5-3.5,3.5H6.6
		c-1.9,0-3.5-1.6-3.5-3.5V4C1.4,4,0,5.4,0,7.1v25.2c0,1.8,1.4,3.2,3.2,3.2h28.4c1.8,0,3.2-1.4,3.2-3.2V7.1C34.8,5.4,33.4,4,31.7,4
		L31.7,4z M30.6,30.8c0,0.8-0.6,1.4-1.4,1.4H5.4c-0.8,0-1.4-0.6-1.4-1.4v-13c0-0.8,0.6-1.4,1.4-1.4h23.8c0.8,0,1.4,0.6,1.4,1.4V30.8
		z M30.6,30.8"/>
	<path class="st2" d="M6.6,9.5h2.2c0.7,0,1.2-0.5,1.2-1.2V1.2C10,0.5,9.5,0,8.8,0H6.6C5.9,0,5.4,0.5,5.4,1.2v7.1
		C5.4,8.9,5.9,9.5,6.6,9.5L6.6,9.5z M6.6,9.5"/>
	<path class="st2" d="M25.9,9.5h2.2c0.7,0,1.2-0.5,1.2-1.2V1.2c0-0.7-0.5-1.2-1.2-1.2h-2.2c-0.7,0-1.2,0.5-1.2,1.2v7.1
		C24.7,8.9,25.2,9.5,25.9,9.5L25.9,9.5z M25.9,9.5"/>
</g>
</svg>
