<?xml version="1.0" encoding="utf-8"?>
<!-- Generator: Adobe Illustrator 21.0.0, SVG Export Plug-In . SVG Version: 6.00 Build 0)  -->
<svg version="1.1" id="Layer_1" xmlns="http://www.w3.org/2000/svg" xmlns:xlink="http://www.w3.org/1999/xlink" x="0px" y="0px"
	 viewBox="0 0 37 37" style="enable-background:new 0 0 37 37;" xml:space="preserve">
<style type="text/css">
	.st0{fill:#59595C;}
</style>
<g>
	<path class="st0" d="M29.3,7.7h-8.2c-0.8,0-1.5,0.3-2.1,0.9L7.6,20.1c-0.6,0.6-0.9,1.3-0.9,2.1c0,0.8,0.3,1.5,0.9,2.1l8.2,8.2
		c0.6,0.6,1.3,0.9,2.1,0.9c0.8,0,1.5-0.3,2.1-0.9l11.5-11.5c0.6-0.6,0.9-1.3,0.9-2.1v-8.2C32.3,9,30.9,7.7,29.3,7.7z M25.4,17.5
		c-1.6,0-2.9-1.3-2.9-2.9s1.3-2.9,2.9-2.9c1.6,0,2.9,1.3,2.9,2.9S27,17.5,25.4,17.5z"/>
	<path class="st0" d="M6.2,18.7L17.7,7.1c0.9-0.9,2.2-1.4,3.5-1.4h8.2c0.3,0,0.6,0,0.8,0.1c-0.4-1.2-1.5-2-2.8-2h-8.2
		c-0.8,0-1.5,0.3-2.1,0.9L5.6,16.2c-0.6,0.6-0.9,1.3-0.9,2.1c0,0.6,0.2,1.2,0.5,1.7C5.5,19.5,5.8,19.1,6.2,18.7z"/>
</g>
</svg>
