<?xml version="1.0" encoding="utf-8"?>
<!-- Generator: Adobe Illustrator 16.0.0, SVG Export Plug-In . SVG Version: 6.00 Build 0)  -->
<!DOCTYPE svg PUBLIC "-//W3C//DTD SVG 1.1//EN" "http://www.w3.org/Graphics/SVG/1.1/DTD/svg11.dtd">
<svg version="1.1" id="Layer_1" xmlns="http://www.w3.org/2000/svg" xmlns:xlink="http://www.w3.org/1999/xlink" x="0px" y="0px"
	 width="40px" height="40.105px" viewBox="0 0 40 40.105" enable-background="new 0 0 40 40.105" xml:space="preserve">
<g>
	<path fill="#FFC10E" d="M39.91,20.045C39.91,31.065,30.976,40,19.955,40C8.934,40,0,31.065,0,20.045S8.934,0.09,19.955,0.09
		C30.976,0.09,39.91,9.024,39.91,20.045L39.91,20.045z M39.91,20.045"/>
	<path fill="#FFFFFF" d="M6.854,20.059c0,7.234,5.865,13.1,13.1,13.1s13.1-5.865,13.1-13.1H6.854z M6.854,20.059"/>
	<path fill="#CCCBCB" d="M14.125,20.059v11.73c0.507,0.253,1.033,0.473,1.575,0.658V20.059H14.125z M14.125,20.059"/>
	<path fill="#CCCBCB" d="M23.858,20.059v12.508c0.542-0.169,1.067-0.375,1.575-0.61V20.059H23.858z M23.858,20.059"/>
	<path fill="#333333" d="M18.457,13.462c-0.142-2.632-2.02-4.51-4.651-4.652c-2.626-0.142-4.522,2.233-4.652,4.652
		c-0.055,1.016,1.521,1.011,1.575,0c0.214-3.965,5.94-3.965,6.153,0C16.937,14.473,18.512,14.478,18.457,13.462L18.457,13.462z
		 M18.457,13.462"/>
	<path fill="#333333" d="M29.809,13.462c-0.142-2.632-2.02-4.51-4.652-4.652c-2.626-0.142-4.521,2.233-4.652,4.652
		c-0.055,1.016,1.521,1.011,1.575,0c0.214-3.965,5.939-3.965,6.153,0C28.288,14.473,29.864,14.478,29.809,13.462L29.809,13.462z
		 M29.809,13.462"/>
</g>
</svg>
