<?xml version="1.0" encoding="utf-8"?>
<!-- Generator: Adobe Illustrator 21.0.0, SVG Export Plug-In . SVG Version: 6.00 Build 0)  -->
<svg version="1.1" id="Layer_1" xmlns="http://www.w3.org/2000/svg" xmlns:xlink="http://www.w3.org/1999/xlink" x="0px" y="0px"
	 viewBox="0 0 32 32" style="enable-background:new 0 0 32 32;" xml:space="preserve">
<style type="text/css">
	.st0{fill:#FFFFFF;}
</style>
<path class="st0" d="M14.7,6L9.5,9.9H4.7c-0.8,0-1.4,0.6-1.4,1.4v10c0,0.8,0.6,1.4,1.4,1.4h4.8l5.2,3.9c1,0.7,2.3,0,2.3-1.1V7.1
	C17,5.9,15.6,5.3,14.7,6L14.7,6z M14.7,6"/>
<path class="st0" d="M21.7,8.3c-0.6-0.6-1.7-0.6-2.4,0c-0.6,0.6-0.6,1.7,0,2.4c3.1,3.1,3.1,8.1,0,11.2c-0.6,0.6-0.6,1.7,0,2.4
	c0.3,0.3,0.8,0.5,1.2,0.5c0.4,0,0.9-0.2,1.2-0.5C26.1,19.9,26.1,12.7,21.7,8.3L21.7,8.3z M21.7,8.3"/>
<path class="st0" d="M23.6,4.6c-0.6,0.6-0.6,1.7,0,2.4c2.5,2.5,3.9,5.8,3.9,9.4c0,3.5-1.4,6.9-3.9,9.4c-0.6,0.6-0.6,1.7,0,2.4
	c0.3,0.3,0.8,0.5,1.2,0.5c0.4,0,0.9-0.2,1.2-0.5c3.1-3.1,4.9-7.3,4.9-11.7S29,7.8,25.9,4.6C25.3,3.9,24.2,3.9,23.6,4.6L23.6,4.6z
	 M23.6,4.6"/>
</svg>
