<?xml version="1.0" encoding="utf-8"?>
<!-- Generator: Adobe Illustrator 21.0.0, SVG Export Plug-In . SVG Version: 6.00 Build 0)  -->
<svg version="1.1" id="Layer_1" xmlns="http://www.w3.org/2000/svg" xmlns:xlink="http://www.w3.org/1999/xlink" x="0px" y="0px"
	 viewBox="0 0 295 291.4" style="enable-background:new 0 0 295 291.4;" xml:space="preserve">
<style type="text/css">
	.st0{fill:#FFFFFF;}
</style>
<g>
	<path class="st0" d="M9.4,102.1L8.2,15.9c-0.1-4.4,3.5-8,7.9-7.9l86.2,1.3c6.9,0.1,10.3,8.4,5.4,13.3l-24,24l39.9,39.9l-37,37
		L46.7,83.6l-24,24C17.8,112.5,9.5,109,9.4,102.1L9.4,102.1z M9.4,102.1"/>
	<path class="st0" d="M248.2,84.1l24,24c4.9,4.9,13.2,1.5,13.3-5.4l1.3-86.2c0.1-4.4-3.5-8-7.9-7.9l-86.2,1.3
		c-6.9,0.1-10.3,8.4-5.4,13.3L211.1,47l-39.9,39.9l37,37L248.2,84.1z M248.2,84.1"/>
	<path class="st0" d="M187.1,268.7c-4.9,4.9-1.5,13.2,5.4,13.3l86.2,1.3c4.4,0.1,8-3.5,7.9-7.9l-1.3-86.2
		c-0.1-6.9-8.4-10.3-13.3-5.4l-24,24l-39.9-39.9l-37,37l39.9,39.9L187.1,268.7z M187.1,268.7"/>
	<path class="st0" d="M16.1,282.7l86.2-1.3c6.9-0.1,10.3-8.4,5.4-13.3l-24-23.9l39.9-39.9l-37-37l-39.9,39.9l-24-24
		c-4.9-4.9-13.2-1.5-13.3,5.4l-1.3,86.2C8.1,279.2,11.7,282.8,16.1,282.7L16.1,282.7z M16.1,282.7"/>
</g>
</svg>
