<?xml version="1.0" encoding="utf-8"?>
<!-- Generator: Adobe Illustrator 21.0.0, SVG Export Plug-In . SVG Version: 6.00 Build 0)  -->
<svg version="1.1" id="Layer_1" xmlns="http://www.w3.org/2000/svg" xmlns:xlink="http://www.w3.org/1999/xlink" x="0px" y="0px"
	 viewBox="0 0 240 240" style="enable-background:new 0 0 240 240;" xml:space="preserve">
<style type="text/css">
	.st0{fill:#FFFFFF;}
	.st1{fill:none;}
</style>
<path class="st0" d="M120,1.1C54.5,1.1,1.4,54.4,1.4,120c0,65.6,53.1,118.9,118.6,118.9c65.5,0,118.6-53.2,118.6-118.9
	C238.6,54.4,185.5,1.1,120,1.1z M167.9,157c0,6.1-5,11.1-11,11.1H83.1c-6.1,0-11.1-5-11.1-11.1V83.1c0-6.1,5-11.1,11.1-11.1h73.8
	c6.1,0,11.1,5,11.1,11.1V157z"/>
<rect y="-1" class="st1" width="239.8" height="241.9"/>
</svg>
