<?xml version="1.0" encoding="utf-8"?>
<!-- Generator: Adobe Illustrator 16.0.0, SVG Export Plug-In . SVG Version: 6.00 Build 0)  -->
<!DOCTYPE svg PUBLIC "-//W3C//DTD SVG 1.1//EN" "http://www.w3.org/Graphics/SVG/1.1/DTD/svg11.dtd">
<svg version="1.1" id="Layer_1" xmlns="http://www.w3.org/2000/svg" xmlns:xlink="http://www.w3.org/1999/xlink" x="0px" y="0px"
	 width="40px" height="40px" viewBox="0 0 40 40" enable-background="new 0 0 40 40" xml:space="preserve">
<g>
	<circle fill="#4B5AA7" cx="20.001" cy="20" r="20"/>
	<path fill="#F7CFA2" d="M40,20c0-6.711-3.302-12.623-8.361-16.244c-0.134,0.213-0.267,0.426-0.347,0.665
		c-0.532,1.545-6.179-0.079-5.646,11.292c0,0-0.187,0.985-0.905,1.465c-0.72,0.479-2.637,3.462-1.545,7.084l-0.319,1.172
		c0,0-1.065-1.119-4.98-1.944c-3.941-0.825-6.205-9.001-6.205-9.001l-2.689,6.95c0,0,4.847,9.721,12.756,14.541
		c0,0,2.264,2.37,3.355,2.557s4.9-3.462,6.365-6.738c0,0,5.459-5.646,5.459-10.919c0,0,2.104,2.956,1.785,6.179
		C39.548,24.848,40,22.478,40,20z"/>
	<circle fill="#BDBDBE" cx="13.023" cy="15.1" r="8.735"/>
	<circle fill="#646B79" cx="13.023" cy="15.1" r="6.338"/>
	<circle fill="#DEDEDF" cx="13.023" cy="15.101" r="1.465"/>
</g>
</svg>
