<?xml version="1.0" encoding="utf-8"?>
<!-- Generator: Adobe Illustrator 16.0.0, SVG Export Plug-In . SVG Version: 6.00 Build 0)  -->
<!DOCTYPE svg PUBLIC "-//W3C//DTD SVG 1.1//EN" "http://www.w3.org/Graphics/SVG/1.1/DTD/svg11.dtd">
<svg version="1.1" id="Layer_1" xmlns="http://www.w3.org/2000/svg" xmlns:xlink="http://www.w3.org/1999/xlink" x="0px" y="0px"
	 width="40px" height="40px" viewBox="0 0 40 40" enable-background="new 0 0 40 40" xml:space="preserve">
<g>
	<circle fill="#D7DABA" cx="20" cy="20" r="20"/>
	<path fill="#357180" d="M26.125,17.896c0,0.398-0.323,0.721-0.721,0.721H14.677c-0.397,0-0.72-0.322-0.72-0.721V7.169
		c0-0.397,0.322-0.72,0.72-0.72h10.728c0.397,0,0.72,0.322,0.72,0.72L26.125,17.896L26.125,17.896L26.125,17.896z"/>
	<path fill="#ECEDEA" d="M22.229,15.472l-0.406-1.069h-3.464l-0.407,1.093c-0.159,0.427-0.295,0.715-0.406,0.863
		c-0.112,0.149-0.297,0.224-0.553,0.224c-0.217,0-0.409-0.079-0.575-0.238s-0.25-0.339-0.25-0.54c0-0.116,0.02-0.236,0.059-0.361
		c0.038-0.123,0.103-0.296,0.191-0.517l2.18-5.533c0.062-0.159,0.137-0.35,0.224-0.573c0.087-0.223,0.181-0.407,0.279-0.555
		s0.229-0.267,0.389-0.357c0.161-0.091,0.36-0.137,0.596-0.137c0.24,0,0.441,0.046,0.602,0.137c0.161,0.091,0.291,0.208,0.39,0.352
		s0.182,0.297,0.25,0.462c0.067,0.165,0.154,0.385,0.259,0.659l2.226,5.499c0.175,0.418,0.262,0.723,0.262,0.912
		c0,0.198-0.082,0.379-0.247,0.544c-0.165,0.164-0.363,0.247-0.596,0.247c-0.136,0-0.252-0.024-0.349-0.073
		c-0.098-0.048-0.179-0.113-0.244-0.197c-0.065-0.083-0.137-0.211-0.212-0.384C22.349,15.757,22.284,15.604,22.229,15.472z
		 M18.813,13.107h2.546l-1.285-3.517L18.813,13.107z"/>
	<path fill="#D62127" d="M19.716,30.601c0,0.397-0.323,0.721-0.72,0.721H8.269c-0.397,0-0.721-0.323-0.721-0.721V19.874
		c0-0.398,0.323-0.721,0.721-0.721h10.728c0.396,0,0.72,0.322,0.72,0.721V30.601L19.716,30.601z"/>
	<path fill="#ECEDEA" d="M14.007,29.406h-2.604c-0.376,0-0.645-0.084-0.805-0.253c-0.161-0.168-0.241-0.437-0.241-0.805v-6.405
		c0-0.376,0.082-0.646,0.246-0.811c0.165-0.165,0.432-0.247,0.8-0.247h2.761c0.406,0,0.759,0.025,1.058,0.076
		c0.298,0.05,0.565,0.146,0.802,0.29c0.201,0.12,0.38,0.272,0.535,0.456c0.154,0.185,0.273,0.388,0.354,0.61
		c0.081,0.224,0.122,0.458,0.122,0.706c0,0.853-0.427,1.477-1.279,1.872c1.12,0.356,1.681,1.05,1.681,2.081
		c0,0.476-0.123,0.905-0.366,1.287c-0.244,0.381-0.574,0.663-0.988,0.846c-0.26,0.108-0.559,0.185-0.896,0.229
		C14.85,29.384,14.457,29.406,14.007,29.406z M12.084,22.182v2.203h1.58c0.431,0,0.763-0.041,0.997-0.122s0.414-0.236,0.538-0.465
		c0.097-0.163,0.145-0.346,0.145-0.547c0-0.43-0.152-0.716-0.459-0.857c-0.307-0.141-0.772-0.212-1.4-0.212H12.084L12.084,22.182z
		 M13.88,25.622h-1.797v2.487h1.854c1.166,0,1.749-0.42,1.749-1.261c0-0.43-0.151-0.742-0.453-0.936S14.479,25.622,13.88,25.622z"/>
	<path fill="#65A844" d="M32.533,30.601c0,0.397-0.322,0.721-0.721,0.721H21.086c-0.397,0-0.72-0.323-0.72-0.721V19.874
		c0-0.398,0.322-0.721,0.72-0.721h10.727c0.398,0,0.721,0.322,0.721,0.721V30.601z"/>
	<path fill="#ECEDEA" d="M30.233,27.067c0,0.271-0.067,0.565-0.201,0.881c-0.134,0.316-0.344,0.626-0.631,0.93
		c-0.287,0.305-0.652,0.551-1.098,0.741c-0.446,0.19-0.966,0.285-1.559,0.285c-0.449,0-0.858-0.043-1.227-0.128
		s-0.702-0.218-1.002-0.398c-0.301-0.18-0.576-0.417-0.829-0.712c-0.225-0.268-0.416-0.566-0.574-0.898
		c-0.159-0.331-0.278-0.685-0.358-1.061c-0.079-0.375-0.119-0.774-0.119-1.197c0-0.686,0.1-1.3,0.3-1.842
		c0.199-0.543,0.485-1.007,0.856-1.393c0.373-0.385,0.809-0.679,1.309-0.881c0.5-0.201,1.032-0.302,1.599-0.302
		c0.689,0,1.304,0.138,1.843,0.413c0.538,0.275,0.951,0.615,1.237,1.02c0.286,0.405,0.43,0.788,0.43,1.148
		c0,0.197-0.069,0.372-0.209,0.522c-0.139,0.151-0.309,0.227-0.506,0.227c-0.221,0-0.386-0.052-0.497-0.156
		c-0.11-0.104-0.232-0.285-0.368-0.541c-0.226-0.422-0.489-0.738-0.794-0.947c-0.304-0.209-0.679-0.313-1.125-0.313
		c-0.709,0-1.273,0.27-1.693,0.808c-0.421,0.539-0.631,1.305-0.631,2.296c0,0.663,0.093,1.214,0.278,1.653
		c0.187,0.44,0.45,0.769,0.791,0.985s0.74,0.325,1.197,0.325c0.496,0,0.915-0.123,1.258-0.369s0.603-0.607,0.776-1.084
		c0.073-0.225,0.164-0.407,0.273-0.549c0.108-0.142,0.282-0.212,0.522-0.212c0.205,0,0.382,0.071,0.528,0.215
		C30.159,26.677,30.233,26.854,30.233,27.067z"/>
</g>
</svg>
