<?xml version="1.0" encoding="utf-8"?>
<!-- Generator: Adobe Illustrator 16.0.0, SVG Export Plug-In . SVG Version: 6.00 Build 0)  -->
<!DOCTYPE svg PUBLIC "-//W3C//DTD SVG 1.1//EN" "http://www.w3.org/Graphics/SVG/1.1/DTD/svg11.dtd">
<svg version="1.1" id="Layer_1" xmlns="http://www.w3.org/2000/svg" xmlns:xlink="http://www.w3.org/1999/xlink" x="0px" y="0px"
	 width="40px" height="39.999px" viewBox="0 0 40 39.999" enable-background="new 0 0 40 39.999" xml:space="preserve">
<g>
	<path fill="#DACF9F" d="M20,0C8.954,0,0,8.953,0,20c0,11.045,8.954,19.999,20,19.999S40,31.045,40,20C40,8.953,31.046,0,20,0z"/>
	<path fill="#B4222D" d="M20.758,5.345c-0.814,0-3.039,2.689-3.039,4.228c0,1.539,0,8.256,0,8.256c0,0.479,4.563,0.479,4.563,0
		c0,0,0-6.779,0-8.256C22.281,8.097,21.735,5.345,20.758,5.345z"/>
	<path fill="#BC2A3C" d="M20.024,7.158c-0.814-0.347-1.059,0.876-1.059,2.414c0,1.885,0,1.885,0,8.256
		c0,0.479,1.059,0.492,1.059,0.492V7.158z"/>
	<path fill="#A31D2D" d="M20.758,5.345c-0.728,0-2.545,2.153-2.967,3.699c0,0,0.014,0.782,0.899,0.66
		c0.809-0.111,1.741-0.703,2.444-2.139C21.754,6.302,21.207,5.345,20.758,5.345z"/>
	<path fill="#EABC60" d="M19.954,16.833c-1.624,0-2.887,0.298-2.887,0.298v10.615c0,0.616,5.865,0.616,5.865,0V17.131
		C22.933,17.131,21.578,16.833,19.954,16.833z"/>
	<path fill="#F7CD84" d="M19.954,16.833c-0.52,0-1.001,0.066-1.416,0.156v11.164c0.448,0.037,0.957,0.056,1.466,0.055V16.834
		C19.987,16.834,19.971,16.833,19.954,16.833z"/>
	<path fill="#2D2D2D" d="M19.943,27.178c-1.979,0-3.518,0.407-3.518,0.407v12.096c1.159,0.209,2.354,0.318,3.574,0.318
		c1.221,0,2.415-0.109,3.574-0.318V27.585C23.574,27.585,21.923,27.178,19.943,27.178z"/>
	<path fill="#333333" d="M19.943,27.976c-0.503,0-0.978,0.026-1.405,0.065v11.905c0.482,0.034,0.971,0.053,1.462,0.053
		c0.002,0,0.003,0,0.004,0V27.976C19.984,27.976,19.964,27.976,19.943,27.976z"/>
	<path fill="#CE9D4E" d="M19.943,26.713c-1.996,0-3.549,0.126-3.549,0.126v2.542c0,0.759,7.211,0.759,7.211,0v-2.542
		C23.605,26.839,21.939,26.713,19.943,26.713z"/>
	<path fill="#E0AE55" d="M19.943,26.896c-1.996,0-3.549,0.125-3.549,0.125v2.543c0,0.759,7.211,0.759,7.211,0v-2.543
		C23.605,27.021,21.939,26.896,19.943,26.896z"/>
	<path fill="#EDBF77" d="M19.943,26.896c-0.503,0-0.978,0.008-1.405,0.02v3.174c0.463,0.029,0.965,0.044,1.466,0.043v-3.236
		C19.984,26.896,19.964,26.896,19.943,26.896z"/>
</g>
</svg>
