<?xml version="1.0" encoding="utf-8"?>
<!-- Generator: Adobe Illustrator 16.0.0, SVG Export Plug-In . SVG Version: 6.00 Build 0)  -->
<!DOCTYPE svg PUBLIC "-//W3C//DTD SVG 1.1//EN" "http://www.w3.org/Graphics/SVG/1.1/DTD/svg11.dtd">
<svg version="1.1" id="Layer_1" xmlns="http://www.w3.org/2000/svg" xmlns:xlink="http://www.w3.org/1999/xlink" x="0px" y="0px"
	 width="40px" height="40px" viewBox="0 0 40 40" enable-background="new 0 0 40 40" xml:space="preserve">
<g id="Layer_3">
	<g>
		<circle fill="#E6A52E" cx="20.001" cy="19.998" r="20"/>
		<g>
			<path fill="#F6E0C2" d="M32.19,9.748c-0.207-0.059-0.236-0.199-0.256-0.268c-0.299-1.012-1.07-1.83-2.176-1.838
				c-1.375-0.008-2.5,1.102-2.51,2.475c-0.002,0.377,0.078,0.738,0.234,1.068c0.031,0.066,0.127,0.168-0.08,0.367
				c-0.186,0.178-2.893,2.781-3.494,3.359l2.707,2.48c0.834-0.803,3.225-3.102,3.363-3.234c0.166-0.162,0.25-0.074,0.303-0.045
				c0.332,0.178,0.701,0.277,1.088,0.289c1.373,0.045,2.527-1.035,2.57-2.408C33.978,10.889,33.208,10.027,32.19,9.748z"/>
			<path fill="#735542" d="M23.776,14.791c-0.373-0.318-0.895-0.244-1.258,0.084c-1.227,1.111-5.574,0.768-5.631,0.791
				c-2.193,0.068-5.447,0.229-7.326,1.943c-3.748,3.426-4.41,8.803-1.48,12.008c2.898,3.172,8.121,3.391,11.641,0.012
				c3.521-3.381,3.082-4.244,5.111-7.49c2.293-3.666,2.789-3.828,1.875-4.662l-0.092-0.084l-2.707-2.48L23.776,14.791z"/>
		</g>
	</g>
</g>
</svg>
