<?xml version="1.0" encoding="utf-8"?>
<!-- Generator: Adobe Illustrator 16.0.0, SVG Export Plug-In . SVG Version: 6.00 Build 0)  -->
<!DOCTYPE svg PUBLIC "-//W3C//DTD SVG 1.1//EN" "http://www.w3.org/Graphics/SVG/1.1/DTD/svg11.dtd">
<svg version="1.1" id="Layer_1" xmlns="http://www.w3.org/2000/svg" xmlns:xlink="http://www.w3.org/1999/xlink" x="0px" y="0px"
	 width="40px" height="40.101px" viewBox="0 0 40 40.101" enable-background="new 0 0 40 40.101" xml:space="preserve">
<circle fill="#B1C635" cx="20.025" cy="20.076" r="19.975"/>
<g>
	<path fill="#FFFFFF" d="M13.536,24.686c0.028,0.02,0.059,0.035,0.09,0.048c0.242,0.119,0.472,0.053,0.628-0.099
		c0.161-0.126,0.26-0.33,0.192-0.589c-0.5-1.929-1-3.856-1.501-5.786c-0.081-0.313-0.413-0.497-0.724-0.417
		c-1.928,0.5-3.856,1.001-5.783,1.502c-0.505,0.131-0.584,0.823-0.143,1.083c0.614,0.361,1.229,0.723,1.843,1.084l-2.171,3.759
		c-0.216,0.38-0.216,1.021,0.002,1.399l2.104,3.643c0.032-0.2,0.11-0.406,0.229-0.615l3.498-6.032
		C12.379,24.005,12.957,24.346,13.536,24.686z"/>
	<path fill="#FFFFFF" d="M16.174,26.731v-0.011h-5.473l-1.802,3.097c-0.145,0.255-0.216,0.495-0.221,0.711
		c-0.007,0.323,0.14,0.588,0.415,0.751c0.159,0.078,0.323,0.135,0.487,0.162c0.029,0.005,0.063,0.009,0.095,0.01l0.34,0.008h5.674
		c0.005,0,0.008,0.001,0.012,0.001c0.117,0,0.236,0,0.354,0c0.004,0,0.008-0.001,0.013-0.001h0.105v-0.005
		c1.235-0.063,2.257-1.088,2.265-2.344C18.448,27.857,17.424,26.778,16.174,26.731z"/>
	<path fill="#FFFFFF" d="M27.59,9.686c-0.618,0.353-1.236,0.707-1.855,1.061L23.55,6.994c-0.22-0.377-0.777-0.695-1.214-0.694
		L18.13,6.316c0.156,0.128,0.297,0.299,0.419,0.505l3.497,6.031c-0.598,0.343-1.195,0.686-1.793,1.026
		c-0.002,0-0.004,0.002-0.005,0.003c-0.003,0.001-0.006,0.004-0.009,0.006c-0.243,0.146-0.308,0.381-0.258,0.596
		c0.021,0.21,0.15,0.404,0.413,0.477c1.923,0.523,3.846,1.047,5.767,1.572c0.312,0.083,0.642-0.104,0.727-0.415
		c0.523-1.922,1.048-3.844,1.571-5.765C28.598,9.846,28.04,9.429,27.59,9.686z"/>
	<path fill="#FFFFFF" d="M17.641,6.733c-0.277-0.167-0.579-0.17-0.858-0.013c-0.146,0.099-0.276,0.214-0.382,0.343
		c-0.019,0.023-0.039,0.051-0.056,0.077l-0.176,0.29l-2.827,4.94c-0.001,0.001-0.002,0.001-0.002,0.002
		c-0.059,0.103-0.117,0.205-0.177,0.309c-0.001,0.002-0.001,0.003-0.002,0.004l-0.052,0.092l0.004,0.002
		c-0.565,1.104-0.171,2.506,0.916,3.133c1.086,0.628,2.518,0.27,3.181-0.788l0.012,0.007l2.719-4.749l-1.793-3.103
		C18,7.026,17.826,6.845,17.641,6.733z"/>
	<path fill="#FFFFFF" d="M26.305,26.874c0.002-0.667,0.004-1.336,0.007-2.004c0.002-0.041,0-0.081-0.007-0.121
		c-0.024-0.251-0.182-0.409-0.376-0.474c-0.182-0.081-0.398-0.072-0.587,0.086c-0.015,0.011-0.028,0.021-0.042,0.034
		c0,0,0,0-0.001,0.001c-1.413,1.404-2.826,2.809-4.239,4.213c-0.23,0.229-0.222,0.609,0.005,0.836
		c1.403,1.412,2.808,2.825,4.211,4.238c0.362,0.363,1.006,0.094,1.008-0.416c0.003-0.716,0.005-1.431,0.007-2.146l4.34-0.021
		c0.438-0.003,0.992-0.327,1.209-0.705l2.085-3.653c-0.189,0.071-0.407,0.107-0.647,0.11L26.305,26.874z"/>
	<path fill="#FFFFFF" d="M34.14,24.873c-0.01-0.028-0.024-0.061-0.039-0.088l-0.164-0.297l-2.873-4.923
		c-0.002-0.003-0.003-0.006-0.004-0.008c-0.06-0.102-0.12-0.204-0.18-0.307c-0.001-0.002-0.003-0.004-0.004-0.006l-0.044-0.076
		l-0.005,0.002c-0.673-1.049-2.103-1.397-3.187-0.763c-1.082,0.634-1.467,2.043-0.892,3.144l-0.01,0.006l2.759,4.727l3.581-0.005
		c0.294-0.004,0.537-0.063,0.727-0.167c0.283-0.157,0.437-0.417,0.438-0.737C34.232,25.197,34.199,25.028,34.14,24.873z"/>
</g>
</svg>
