<?xml version="1.0" encoding="utf-8"?>
<!-- Generator: Adobe Illustrator 16.0.0, SVG Export Plug-In . SVG Version: 6.00 Build 0)  -->
<!DOCTYPE svg PUBLIC "-//W3C//DTD SVG 1.1//EN" "http://www.w3.org/Graphics/SVG/1.1/DTD/svg11.dtd">
<svg version="1.1" id="Layer_1" xmlns="http://www.w3.org/2000/svg" xmlns:xlink="http://www.w3.org/1999/xlink" x="0px" y="0px"
	 width="40px" height="40.101px" viewBox="0 0 40 40.101" enable-background="new 0 0 40 40.101" xml:space="preserve">
<g>
	<path fill="#E04F5F" d="M0,20.004C0,8.96,8.953,0.008,19.996,0.008c11.044,0,19.996,8.952,19.996,19.996
		C39.992,31.047,31.04,40,19.996,40C8.953,40,0,31.047,0,20.004L0,20.004z M0,20.004"/>
	<path fill="#FFFFFF" d="M30.155,12.513c-2.805-2.805-7.354-2.805-10.157,0h-0.003c-2.806-2.805-7.353-2.805-10.158,0
		c-2.805,2.806-2.4,7,0,10.158c2.543,3.345,7.185,8.862,10.158,8.862h0.003c2.974,0,7.615-5.518,10.157-8.862
		C32.557,19.514,32.961,15.318,30.155,12.513L30.155,12.513z M30.155,12.513"/>
</g>
</svg>
